<?xml version="1.0" encoding="utf-8" ?>
<svg xmlns="http://www.w3.org/2000/svg" xmlns:xlink="http://www.w3.org/1999/xlink" width="1024" height="1024">
	<path fill="#FEFEFE" d="M0 0L1024 0L1024 1024L0 1024L0 0Z"/>
	<path fill="#0C0C0C" d="M218.498 552.704C241.834 550.11 272.639 567.906 293.088 578.3L327.562 595.617C315.83 598.208 303.067 603.317 295.372 612.98C289.814 619.959 288.681 627.139 289.685 635.835C285.752 633.197 282.663 630.198 280.333 626.017C279.604 624.709 279.147 623.175 278.035 622.165L276.309 622.92C275.569 623.471 274.829 624.034 274.154 624.665C268.938 629.536 268.234 635.771 267.946 642.478C260.492 638.336 256.292 633.159 251.07 626.584C246.368 630.224 245.247 632.9 243.886 638.519C237.207 632.733 233.723 626.025 230.526 617.891C212.58 611.204 195.131 589.37 182.983 574.663C184.712 571.862 186.438 569.053 188.55 566.519C196.143 557.408 207.04 553.798 218.498 552.704Z"/>
	<path fill="#0C0C0C" d="M180.456 579.302C184.254 583.193 187.567 587.542 191.227 591.561C200.594 601.847 210.826 610.823 222.458 618.456C221.011 624.987 218.48 631.374 216.435 637.749Q214.086 645.034 212.335 652.486Q210.584 659.937 209.442 667.506C204.606 701.502 215.628 773.708 233.21 803.008C235.402 806.661 237.763 810.292 240.393 813.646C246.052 820.864 261.494 836.726 263.73 844.776C263.932 845.5 264.153 846.167 263.669 846.797C260.958 850.327 249.84 850.939 245.624 851.21C234.009 851.848 220.231 850.771 209.303 846.575C207.683 839.038 206.956 820.957 202.267 815.691C198.929 811.943 194.559 811.733 189.901 811.527C193.412 768.701 178.646 720.172 164.537 680.241C159.408 665.726 153.298 651.377 149.145 636.553C161.242 617.19 170.456 599.763 180.456 579.302Z"/>
	<path fill="#0C0C0C" d="M823.008 145.911C824.12 145.988 823.664 145.77 824.409 146.485C823.392 149.073 821.681 151.313 820.669 153.935C818.705 159.021 818.324 164.718 820.787 169.713C822.093 172.36 824.315 174.91 826.763 176.56C837.177 183.58 848.269 172.489 859.222 173.156C862.701 173.367 867.376 175.728 870.726 176.882L875.154 174.612C880.343 175.988 885.378 176.098 890.722 176.084C888.295 176.472 885.936 176.914 883.551 177.532L883.79 177.857C886.265 178.163 888.788 178.445 891.231 178.96C894.327 179.612 897.582 181.157 900.738 181.166C913.307 181.202 926.876 174.475 934.687 164.637C937.358 161.275 940.63 152.039 944.5 150.849L945.245 151.776C946.034 156.109 945.88 160.417 944.991 164.719C942.499 176.776 934.463 188.96 924.102 195.692C921.117 197.631 914.524 201.509 911.003 200.661C909.719 200.352 910.369 200.307 909.221 200.646C912.786 207.364 914.202 214.766 917.283 221.654C923.223 234.934 931.787 239.677 932.084 255.939C932.265 265.912 928.892 272.803 931.283 283.271C936.733 307.131 954.319 337.803 967.153 358.841C968.697 358.838 970.276 358.795 971.815 358.909C973.687 359.048 975.507 359.625 976.698 361.175C980.667 366.341 979.023 379.971 977.925 386.028C977.242 389.801 976.064 394.608 972.64 396.814C968.064 399.763 961.663 397.675 956.525 398.461C947.525 399.837 940.06 406.293 930.421 404.967C921.499 403.74 917.115 395.593 909.215 392.761C902.899 390.497 894.356 390.494 887.601 389.489C879.105 388.225 870.631 386.412 862.286 384.394C837.356 378.364 829.243 369.881 816.061 348.254Q816.698 349.998 817.405 351.715C824.638 369.21 834.018 378.322 851.095 385.399C844.836 387.754 839.98 391.017 835.157 395.631C822.858 407.396 786.95 458.293 780.497 473.636C776.507 483.12 773.857 493.278 770.876 503.118C763.141 528.655 753.56 558.663 733.792 577.363C720.836 589.619 690.476 600.709 672.984 604.877C668.32 605.989 657.208 607.164 653.608 609.478C652.67 610.08 652.706 610.051 652.499 611.201C657.397 613.143 688.801 604.414 695.299 602.293C690.925 616.804 687.051 631.387 685.189 646.461C683.866 657.164 684.22 668.22 681.512 678.71C679.326 687.18 675.273 694.173 671.97 702.12C665.555 717.557 669.017 771.081 672.547 788.23Q673.473 792.801 675.051 797.189Q676.63 801.577 678.828 805.69C683.566 814.63 690.172 823.132 696.094 831.353C699.224 835.698 703.221 840.3 705.216 845.302C705.5 846.013 705.424 845.623 704.991 846.611C698.751 851.058 680.064 850.782 672.721 850.335C667.044 849.989 658.883 849.534 654.035 846.241C644.283 839.615 651.904 812.459 644.271 804.774C643.655 804.154 643.944 804.329 643.01 804.356C640.622 806.142 639.067 809.43 637.372 811.908C638.666 784.719 641.572 757.727 641.672 730.464C641.708 720.584 641.914 710.186 639.83 700.485C638.481 694.203 635.618 688.284 633.108 682.4C632.865 691.698 632.565 702.103 629.034 710.81C626.642 716.71 623.382 722.254 621.824 728.467C620.097 735.356 620.363 742.956 620.436 750.024C620.696 775.185 624.192 808.56 634.082 831.827C638.888 843.133 646.095 852.311 652.29 862.721C653.747 865.169 655.095 867.743 654.364 870.632C653.533 871.692 652.832 872.32 651.587 872.872C639.945 878.041 614.29 875.893 602.689 871.373C590.222 866.516 595.965 852.732 594.996 842.722C594.562 838.243 592.941 834.523 591.219 830.422Q588.982 832.547 586.71 834.635C586.509 820.811 588.613 807.851 590.62 794.252Q591.639 786.84 592.253 779.383Q592.867 771.927 593.074 764.448Q593.281 756.969 593.08 749.489Q592.88 742.01 592.272 734.553C591.813 728.978 591.148 723.281 589.506 717.913C586.065 706.658 580.731 696.87 579.545 684.855C578.611 675.385 579.821 665.888 579.567 656.399C579.353 648.383 575.311 609.28 572.132 603.527C572.019 603.322 571.87 603.137 571.713 602.965C564.842 595.46 517.803 609.869 507.268 612.225Q492.891 615.446 478.288 617.407Q465.1 619.233 451.793 619.688Q438.487 620.144 425.205 619.224C391.307 616.837 356.44 606.78 325.778 592.29C315.941 587.642 306.785 581.747 297.35 576.367C276.886 564.698 248.176 549.445 224.275 548.393C210.944 547.806 197.014 551.184 187.038 560.427C184.63 562.657 182.652 565.152 180.91 567.927C172.374 581.527 165.914 596.417 158.69 610.734C155.432 617.193 151.804 623.474 148.649 629.982C144.419 638.706 140.665 647.73 136.66 656.569C133.428 663.702 129.563 671.006 127.438 678.537C123.207 693.536 122.509 710.568 121.944 726.087C120.806 753.498 123.935 808.522 137.438 832.541C141.598 839.942 158.9 862.751 158.303 869.925C158.193 871.256 157.956 871.659 156.849 872.387C150.79 876.375 126.171 874.83 118.646 873.553C96.6669 869.824 101.882 866.21 101.514 848.201C101.454 845.235 101.037 842.193 99.1883 839.767C96.0988 835.712 91.0126 834.874 86.2927 834.255C87.948 821.093 92.0842 808.252 93.2514 795.082C94.3282 782.932 93.4032 770.378 92.5569 758.248Q89.817 721.16 83.8542 684.452C82.7063 677.182 81.8651 669.681 80.186 662.519C78.2805 654.392 74.258 646.688 74.1481 638.189C73.9986 626.638 83.8601 615.69 88.8767 605.554Q91.6305 600.022 93.7957 594.234Q95.9608 588.445 97.5139 582.464C107.695 543.285 97.4493 503.439 88.7122 465.063C84.2471 445.451 79.8488 425.872 76.2372 406.081C71.4972 380.106 66.8944 348.984 74.0243 323.132C77.7699 309.551 86.2538 293.391 97.304 284.326C100.755 281.495 104.852 279.412 108.713 277.2C102.739 278.593 97.37 280.666 92.4806 284.446C83.6434 291.278 77.8809 302.303 73.8171 312.47C56.3519 356.164 63.3064 400.78 68.5433 445.995Q70.9911 468.167 72.1198 490.446C73.6564 519.947 71.8548 548.73 67.8998 577.977C74.175 589.38 79.8513 604.542 77.0004 617.743C75.8143 623.235 73.4175 628.407 72.6898 634.003C72.0159 639.186 73.5234 644.387 73.2205 649.582C72.3477 664.556 61.4725 684.805 52.3098 696.428C48.8083 700.869 44.8728 704.705 40.7252 708.522C60.2097 674.923 36.592 659.177 36.651 626.145C36.6823 608.658 43.3572 589.924 55.8536 577.519Q57.83 555.438 57.8628 533.268Q57.8955 511.099 55.9843 489.012C51.1535 433.502 38.2815 380.122 48.5517 324.303C51.1952 309.936 55.2292 295.607 62.0227 282.619C73.2085 261.233 90.9003 247.408 115.023 243.987C124.732 242.61 135.022 242.727 144.48 245.515C149.57 247.015 154.561 248.942 159.74 250.12C168.195 252.044 176.75 252.397 185.385 252.351C257.833 251.965 330.201 258.591 402.569 261.714C438.005 263.243 473.896 264.437 509.328 262.549C519.684 261.997 530.689 261.431 540.779 258.941C555.094 255.408 568.22 249.46 583.135 248.052C596.788 246.762 610.794 247.467 624.345 249.475C631.335 250.511 638.081 252.471 645.19 252.558C668.579 252.845 690.329 240.86 711.963 233.462C719.675 230.825 727.64 229.52 735.362 227.083L735.901 226.908C744.018 237.867 755.65 248.569 769.432 251.323C780.838 253.602 792.162 250.239 801.656 243.877C794.597 246.498 787.446 249.048 779.83 249.198C767.591 249.439 756.27 243.234 747.688 234.865C741.632 228.959 721.785 201.16 721.992 193.31C722.028 191.936 722.539 190.832 723.552 189.899C726.609 187.086 733.502 186.225 737.52 185.69C755.725 183.265 774.717 187.621 790.511 196.948C794.097 199.065 804.235 206.817 807.793 206.983C807.38 206.247 807.267 205.824 807.238 204.981C812.329 200.25 821.377 200.92 827.891 200.894C818.947 196.8 812.145 192.8 807.961 183.544C804.792 176.531 804.046 168.333 806.88 161.075C809.908 153.322 815.599 149.01 823.008 145.911Z"/>
	<path fill="#FEFEFE" d="M951.293 362.522C951.762 362.5 952.231 362.471 952.7 362.477C955.341 362.51 956.786 363.678 958.5 365.567C960.534 367.809 963.653 371.979 963.452 375.151L962.833 375.297L960.746 373.362C955.992 368.775 952.243 367.532 946.302 365.283C947.403 363.892 949.692 363.224 951.293 362.522Z"/>
	<path fill="#FEFEFE" d="M860.461 267.064Q861.552 266.936 862.649 266.878C865.124 266.768 869.326 267.768 871 269.731C871.833 270.708 871.733 271.251 871.594 272.404C870.711 273.835 869.732 274.475 868.333 275.377C867.777 275.517 867.223 275.65 866.657 275.744C864.157 276.16 861.105 275.136 859.161 273.544C857.935 272.541 857.738 271.56 857.623 270.052C858.088 268.497 859.198 267.933 860.461 267.064Z"/>
	<path fill="#FEFEFE" d="M655.855 598.335L656.466 598.712C657.011 601.171 652.463 607.011 651.111 609.5C645.397 620.021 642.263 632.81 638.792 644.236L638.396 644.368C638.223 643.446 638.096 642.833 638.334 641.904C638.961 639.464 639.202 636.895 639.619 634.406C641.794 621.45 644.574 606.406 655.855 598.335Z"/>
	<path fill="#FEFEFE" d="M860.795 245.141C866.3 244.916 871.416 246.153 876.084 249.151C885.376 255.117 890.048 266.328 892.432 276.667L888.293 270.032C885.049 265.515 881.511 260.861 877.21 257.304C868.956 250.479 860.198 250.143 850.075 251.15C853.31 247.813 856.275 246.221 860.795 245.141Z"/>
</svg>
