<?xml version="1.0" encoding="utf-8" ?>
<svg xmlns="http://www.w3.org/2000/svg" xmlns:xlink="http://www.w3.org/1999/xlink" width="1024" height="1024">
	<path fill="#FEFEFE" d="M0 0L1024 0L1024 1024L0 1024L0 0Z"/>
	<path d="M878.023 120.483C878.761 121.73 877.754 123.913 877.336 125.326C869.759 150.94 864.658 167.162 866.094 194.762C858.454 187.089 847.162 183.007 837.125 179.518Q828.985 176.854 820.612 175.056C822.89 170.763 826.112 166.739 828.95 162.802C842.353 144.211 857.819 131.15 878.023 120.483Z"/>
	<path d="M817.294 538.395C817.634 541.313 815.928 545.656 815.103 548.496C811.08 562.336 805.279 576.397 798.668 589.199C792.958 600.256 786.533 610.724 781.523 622.166Q777.114 632.427 773.645 643.043Q770.175 653.659 767.673 664.544C765.019 675.828 763.329 687.238 761.52 698.675Q757.388 723.451 754.481 748.4C751.296 774.427 746.918 804.848 748.719 830.829C749.398 840.624 751.562 849.658 755.17 858.784C759.195 868.964 763.599 877.582 775.647 878.606C779.862 878.964 783.871 879.31 787.784 881.105C796.596 885.146 802.748 895.506 806.082 904.227C792.937 906.052 779.946 906.551 766.692 906.622L760.42 906.349C754.126 896.744 749.19 891.884 737.844 888.733C735.615 881.92 733.117 874.466 728.423 868.925C725.014 864.901 720.354 862.078 718.123 857.102C714.633 849.319 717.733 837.078 718.402 828.783C718.871 822.971 719.204 817.065 719.066 811.236C718.596 791.252 716.736 771.165 714.641 751.286C713.289 738.46 711.354 725.31 711.138 712.421C710.724 687.751 721.916 640.58 731.429 617.417C759.806 603.203 787.002 581.945 805.969 556.285C810.181 550.587 813.706 544.493 817.294 538.395Z"/>
	<path d="M498.24 607.198C510.665 606.044 530.877 610.917 543.434 613.858C535.963 661.084 506.99 698.442 477.654 734.598C469.692 744.412 461.195 754.056 453.856 764.335C443.933 778.235 441.228 789.128 444.065 805.969C447.623 827.098 459.016 863.871 476.79 876.463C481.018 876.589 485.124 877.15 489.133 878.542C499.399 882.107 505.711 889.219 510.345 898.77L512.023 903.455C498.429 903.463 464.306 907.691 453.165 900.944C450.791 899.507 448.645 897.12 447.367 894.663C443.874 887.948 441.327 880.611 438.542 873.572L424.64 838.082C419.298 824.334 412.629 810.712 408.591 796.531Q407.941 794.311 407.482 792.043Q407.023 789.776 406.758 787.477Q406.494 785.179 406.425 782.867Q406.357 780.554 406.486 778.244C407.138 767.873 411.218 759.859 416.372 751.075C427.643 731.867 431.363 717.531 425.793 695.562C437.211 679.436 449.685 664.233 460.766 647.805C465.797 640.345 470.439 632.619 475.188 624.978C477.692 620.949 480.106 616.491 483.13 612.844C487.103 608.052 492.458 607.787 498.24 607.198Z"/>
	<path d="M747.709 102.815C749.862 104.844 756.279 116.773 758.401 120.194C768.908 137.133 784.664 160.969 800.213 173.439C805.702 177.842 813.86 179.067 820.492 180.928C840.569 186.56 860.902 193.763 876.015 208.79C886.963 219.676 891.025 232.765 897.502 246.25C904.34 260.487 914.99 271.488 927.775 280.589Q932.817 284.152 938.16 287.245Q943.504 290.337 949.106 292.933C955.17 295.67 974.688 300.516 977.493 304.043C978.345 305.115 978.624 306.036 978.466 307.404C978.018 311.313 971.472 316.395 968.483 318.643C961.288 316.504 957.761 313.144 953.721 306.991C951.988 308.21 950.333 309.367 948.293 310.022C941.369 312.245 933.778 311.487 926.663 310.861C906.441 309.084 886.902 304.35 867.506 298.467C853.341 294.171 839.359 289.249 824.863 286.139C812.156 283.413 798.703 281.789 785.756 283.576C768.107 286.012 753.584 294.661 742.825 308.785C754.501 299.448 768.014 297.879 782.251 295.285C766.846 301.542 755.425 310.819 747.19 325.443C756.396 316.303 765.073 311.417 776.418 305.311C774.3 307.353 772.107 309.386 770.258 311.68C759.198 325.4 758.283 341.563 759.979 358.339C761.912 344.863 765.291 333.911 774.766 323.83C771.161 331.328 768.763 338.762 768.087 347.093C766.285 369.296 778.484 390.409 792.411 406.737Q790.87 403.726 789.48 400.642Q788.924 399.394 788.431 398.119Q787.937 396.845 787.508 395.548Q787.078 394.25 786.714 392.934Q786.349 391.617 786.05 390.283Q785.751 388.95 785.518 387.603Q785.286 386.257 785.12 384.9Q784.954 383.544 784.856 382.181Q784.758 380.818 784.728 379.452Q784.697 378.086 784.734 376.72Q784.771 375.354 784.876 373.991Q784.981 372.629 785.153 371.273Q785.326 369.918 785.565 368.572Q785.804 367.227 786.11 365.895Q786.415 364.563 786.786 363.248Q787.158 361.933 787.594 360.638Q788.029 359.343 788.529 358.071C784.423 382.88 794.853 398.295 805.822 419.238C809.281 425.842 811.994 432.724 815.038 439.516C813.466 428.584 810.978 418.13 807.913 407.537C820.951 430.145 827.234 457.688 824.316 483.633C843.875 452.002 847.691 413.582 839.82 377.781C844.939 389.776 846.615 402.053 849.499 414.594C848.841 396.91 845.751 360.724 852.669 345.719C856.92 336.497 863.428 331.708 872.869 328.28C857.575 328.409 842.956 331.08 829.832 339.224C835.325 333.92 841.744 330.331 848.881 327.674C881.71 315.452 914.345 333.619 947.771 328.222C955.64 326.951 961.982 323.38 969.172 320.282C962.571 325.609 954.663 328.663 946.495 330.699Q943.059 331.57 939.573 332.215Q936.088 332.86 932.567 333.277Q929.047 333.693 925.507 333.878Q921.967 334.063 918.422 334.017C903.347 333.824 882.162 328.214 868.56 335.4C850.173 345.113 853.311 372.279 854.127 389.41C854.554 398.379 854.962 407.405 854.782 416.386C854.445 433.202 852.443 449.863 847.67 466.033C831.429 521.055 791.168 568.153 740.959 595.398C744.801 587.943 749.31 580.801 753.329 573.434C762.31 556.969 769.222 538.43 770.461 519.555C768.612 524.806 767.706 530.566 766.266 535.962Q762.963 548.046 757.669 559.4C749.317 577.702 737.568 593.997 729.822 612.698Q724.708 625.221 720.925 638.208Q717.141 651.196 714.729 664.506C709.339 693.196 707.641 722.82 706.418 751.958C705.301 778.564 704.346 805.97 707.596 832.454C709.209 845.593 712.246 859.286 717.37 871.506C720.738 879.536 724.582 886.755 733.78 888.841C737.445 889.672 741.204 890.3 744.678 891.789C754.707 896.086 759.228 905.507 762.983 915.065C743.841 917.023 720.244 919.592 702.209 911.784C698.118 902.472 696.389 892.349 691.045 883.502C686.811 876.494 679.976 871.279 676.203 864.031C676.057 863.75 675.917 863.466 675.782 863.18C674.479 860.421 673.832 857.444 673.645 854.407C673.184 846.906 674.947 839.217 674.93 831.669C674.897 817.485 673.21 803.008 671.99 788.876C668.798 751.909 663.146 715.334 657.156 678.737C653.664 657.398 647.763 633.723 647.919 612.239C648.054 593.713 652.501 574.353 658.25 556.774C660.19 550.839 662.677 545.101 664.468 539.118C652.262 562.258 646.196 589.184 643.967 615.062C634.766 611.927 625.783 608.076 616.617 604.818Q593.642 596.763 570.109 590.522C558.079 587.236 545.383 584.7 532.905 584.295C516.757 583.77 501.474 586.886 489.412 598.303C476.069 610.931 464.451 633.808 454.393 649.608Q442.45 668.328 428.366 685.496C414.78 702.391 399.848 718.078 384.647 733.513C375.011 743.297 357.888 758.745 351.078 769.663C343.246 782.219 340.233 798.166 339.937 812.767C339.466 835.925 343.456 868.077 359.978 885.341C366.274 886.261 372.296 887.218 377.885 890.443C386.81 895.593 390.869 903.724 393.491 913.325C380.38 913.509 346.228 916.505 336.008 911.363C329.73 908.205 326.335 902.353 324.112 895.958C317.161 875.968 314.622 853.749 311.547 832.881C308.716 813.676 305.386 793.885 305.291 774.459C305.27 769.989 305.395 765.287 307.573 761.267C310.242 756.342 315.193 752.771 318.687 748.425C330.274 734.017 334.784 714.447 335.737 696.359C338.731 639.546 312.084 582.79 322.369 526.589C326.088 506.267 335.631 486.102 347.638 469.395C350.045 466.046 358.036 457.575 359.412 454.709C357.262 456.398 355.403 458.446 353.547 460.447C320.145 496.473 311.73 544.224 314.559 591.588C315.449 606.495 318.035 621.321 318.538 636.237C319.931 677.582 308.259 722.312 279.495 753.126C285.177 742.052 288.85 730.179 292.417 718.296Q285.753 730.048 277.561 740.791C255.489 769.67 225.43 791.054 188.794 795.833C152.361 800.586 118.054 790.437 89.1176 768.217Q91.8227 769.235 94.5801 770.102Q97.3376 770.968 100.139 771.68Q102.94 772.391 105.777 772.946Q108.614 773.501 111.477 773.898Q114.34 774.294 117.22 774.531Q120.101 774.767 122.99 774.844Q125.88 774.92 128.769 774.835Q131.658 774.751 134.538 774.506C129.112 772.98 123.63 772.043 118.255 770.21Q116.195 769.486 114.162 768.69Q112.129 767.893 110.126 767.025Q108.122 766.158 106.151 765.22Q104.179 764.282 102.242 763.274Q100.305 762.267 98.4043 761.192Q96.5039 760.117 94.6427 758.976Q92.7815 757.834 90.9619 756.628Q89.1422 755.421 87.3663 754.151Q85.5904 752.881 83.8606 751.548Q82.1307 750.216 80.449 748.824Q78.7674 747.431 77.136 745.98Q75.5045 744.529 73.9255 743.021Q72.3464 741.513 70.8216 739.951Q69.2968 738.388 67.8282 736.772Q66.3596 735.157 64.949 733.49Q63.5385 731.823 62.1877 730.108C73.4252 735.728 84.8514 738.273 97.1411 740.307Q95.5274 739.626 93.9265 738.916C74.8534 730.429 57.1706 712.319 49.7084 692.764C63.815 698.293 77.9704 702.178 93.2524 701.952C151.2 701.096 187.472 646.59 212.027 600.896C220.383 585.346 227.827 569.302 236.28 553.807C254.48 520.443 273.902 487.095 300.649 459.746C337.486 422.082 374.719 403.713 428.492 405.499C453.684 406.336 478.688 409.377 503.947 409.035C515.102 408.884 526.328 408.392 537.381 406.805C574.664 401.449 612.336 385.978 642.301 363.112C653.758 354.369 664.15 344.254 674.175 333.933C663.5 339.667 652.298 343.026 640.638 346.08C662.443 328.147 679.64 307.198 691.711 281.559C686.447 287.573 681.041 292.754 674.43 297.267C678.946 287.715 684.791 278.597 689.739 269.232C698.422 252.797 705.961 235.406 716.086 219.791C719.354 214.749 723.664 210.335 727.193 205.451C722.562 171.621 730.464 132.253 747.709 102.815Z"/>
	<path fill="#FEFEFE" d="M849.085 238.665C874.684 235.528 869.333 255.598 880.645 266.946C882.024 268.329 883.974 269.312 885.66 270.28C877.238 269.357 865.971 272.376 858.368 268.829C852.327 266.01 848.744 260.476 846.429 254.468C852.167 252.697 857.05 252.048 863.047 252.604C864.93 253.887 866.513 255.369 868.155 256.933C870.275 260.035 871.453 262.887 872.245 266.538C875.137 266.95 877.98 267.621 880.833 268.245C880.674 268.112 880.514 267.981 880.357 267.846L879.599 267.189C872.311 260.976 872.453 250.207 863.724 245.006C851.247 237.573 831.742 245.759 818.888 248.923C828.53 244.33 838.47 240.234 849.085 238.665Z"/>
	<path d="M859.781 254.751C860.557 254.878 861.342 255.137 862.104 255.335C864.746 257.915 861.38 261.581 862.214 265.001L862.818 265.079C862.936 264.983 863.067 264.902 863.172 264.793C864.428 263.475 864.506 261.046 864.674 259.34C864.761 258.454 864.577 258.831 865.142 258.221L865.747 259.037Q865.521 260.492 865.129 261.911C864.571 263.99 863.999 265.087 862.062 266.207C860.85 266.283 860.167 266.428 859.149 265.584C857.965 264.601 857.315 262.793 857.242 261.297C857.111 258.591 858.085 256.766 859.781 254.751Z"/>
	<path fill="#FEFEFE" d="M748.081 111.894C752.247 119.526 755.776 127.696 759.729 135.467C766.086 147.962 773.177 160.414 780.628 172.29Q785.561 180.185 791.304 187.512C794.263 191.287 803.303 200.452 804.62 203.623C788.549 189.16 774.266 170.38 764.006 151.316C760.345 144.514 757.664 137.084 753.751 130.46L753.515 130.069L755.118 170.031C753.724 166.129 753.435 161.723 753.07 157.621C751.718 147.472 752.169 136.63 751.962 126.366C747.534 145.661 743.861 166.958 746.114 186.746C747.854 202.025 751.66 212.422 764.816 221.162C768.763 223.783 773.126 225.988 776.806 228.971C776.928 229.07 777.049 229.173 777.17 229.274C763.743 223.924 751.169 216.395 744.876 202.918C732.221 175.815 738.303 139.184 748.081 111.894Z"/>
</svg>
