<?xml version="1.0" encoding="utf-8" ?>
<svg xmlns="http://www.w3.org/2000/svg" xmlns:xlink="http://www.w3.org/1999/xlink" width="1024" height="1024">
	<path fill="#FEFEFF" d="M0 0L1024 0L1024 1024L0 1024L0 0Z"/>
	<path fill="#121011" d="M876.346 115.186C877.36 115.564 878.478 115.936 879.294 116.674C880.321 117.602 880.912 119.05 881.059 120.405C881.563 125.039 879.922 132.182 876.874 135.717C875.373 136.058 874.556 135.596 873.104 135.144L876.765 134.699L876.943 134.359C874.718 134.413 873.52 134.695 871.759 133.177C870.814 128.288 874.757 120.016 876.346 115.186Z"/>
	<path fill="#121011" d="M715.881 602.972C716.156 606.976 714.23 612.653 713.32 616.573Q709.527 633.561 704.402 650.195C699.427 665.881 693.583 681.334 689.45 697.274C685.94 710.812 688.684 724.836 687.128 738.7Q685.893 749.794 682.767 760.509C681.105 766.04 678.704 771.485 678.002 777.243C677.064 784.941 677.917 793.451 678.178 801.218C679.132 829.509 680.951 858.443 686.026 886.311C689.046 902.888 705.617 916.021 709.462 932.968C709.958 935.153 710.161 937.794 708.805 939.728C706.556 942.933 701.417 943.689 697.804 944.203C685.947 945.89 667.646 946.843 657.549 939.262C650.371 930.018 652.757 917.775 648.929 907.461C646.171 906.899 642.811 906.543 640.539 904.759C637.568 902.425 637.213 897.818 637.01 894.322C636.145 879.446 638.98 863.749 640.022 848.873C641.246 831.391 640.987 813.719 640.5 796.215C640.298 788.951 640.217 781.197 638.847 774.065C637.96 769.446 636.266 764.902 635.011 760.363Q632.076 749.679 630.884 738.663Q629.795 728.509 630.413 718.315C630.941 710.773 632.147 703.375 631.757 695.792C630.838 677.96 626.183 660.841 624.263 643.216C660.083 635.818 687.304 626.563 715.881 602.972Z"/>
	<path fill="#121011" d="M270.235 618.003C278.144 620.474 285.905 623.097 293.973 625.043C312.039 629.4 330.271 632.021 348.442 635.672C341.96 646.709 336.46 657.938 329.105 668.518C323.934 675.958 315.788 682.211 312.055 690.474C307.584 700.369 307.657 713.446 307.376 724.17Q307.122 738.85 307.709 753.521Q308.296 768.192 309.721 782.806Q311.146 797.419 313.404 811.927Q315.663 826.435 318.748 840.79C321.508 854.109 324.464 867.967 329.732 880.554C337.335 898.724 352.672 910.646 360.142 930.746C360.783 933.054 361.163 935.403 361.581 937.759C347.834 942.923 322.599 943.365 308.761 938.412C297.251 934.293 300.203 924.783 300.636 914.929C300.721 912.991 300.922 910.399 300.165 908.575C297.983 903.318 289.519 902.59 286.264 895.21C283.195 888.252 281.632 874.968 280.092 867.161C274.359 838.087 269.784 808.699 263.707 779.71Q259.371 758.663 254.506 737.732Q251.931 726.948 248.994 716.257C246.143 706.199 241.112 694.43 242.05 683.803C242.847 674.77 254.634 656.502 258.877 646.9C263.074 637.4 266.468 627.666 270.235 618.003Z"/>
	<path fill="#121011" d="M801.906 38.6513Q805.884 38.1731 809.888 38.303C827.817 39.0116 843.29 49.6234 855.155 62.2722C870.345 53.7896 884.352 45.3731 901.816 42.1509C914.094 39.8858 938.801 39.8798 949.287 47.593C950.49 48.4781 951.643 49.7024 951.686 51.2848C951.757 53.8564 949.075 56.6683 947.372 58.3855C927.066 78.8592 903.412 95.0444 873.596 95.0755C875.576 99.106 878.083 103.787 877.764 108.409C877.492 112.342 874.862 115.473 873.206 118.917C866.88 132.067 867.581 144.392 869.956 158.358C869.957 150.763 869.646 143.305 870.157 135.716C872.475 136.489 874.553 137.088 877.012 137.303C876.242 144.431 874.183 151.362 874.411 158.588C874.737 168.912 878.494 179.46 881.432 189.29C886.789 207.216 893.318 225.377 896.629 243.812C899.001 257.023 896.376 271.213 888.611 282.294C882.864 290.494 874.061 297.126 864.023 298.733C840.194 302.547 805.28 282.895 785.821 269.427C777.414 263.608 769.733 257.029 761.511 251.01C778.457 269.579 800.706 283.83 823.095 294.894C819.114 316.708 817.207 339.077 811.947 360.649C806.851 381.547 798.629 401.729 793.759 422.625C790.661 435.925 789.905 449.828 787.549 463.288C781.4 498.422 767.983 534.172 747.206 563.315C716.48 606.412 674.495 630.802 622.771 639.416C617.377 667.345 609.76 694.711 606.55 723.065C605.997 727.947 605.339 732.945 605.478 737.862C605.657 744.224 606.75 750.569 607.059 756.935C607.678 769.722 606.546 783.144 602.88 795.435C601.504 800.046 599.484 804.428 598.046 809.008C593.236 824.331 599.304 910.652 604.479 926.754C606.388 932.691 613.755 942.937 617 949.442C619.564 954.58 628.351 971.598 625.922 976.474C625.035 978.254 622.638 979.211 620.862 979.728C608.284 983.39 584.717 983.013 573.076 976.293C568.197 973.477 566.236 970.09 565.526 964.549C564.54 956.841 566.799 948.222 564.691 940.78C562.499 933.041 555.132 936.479 554.393 923.674C553.755 912.631 555.164 901.38 556.002 890.375C557.489 870.847 558.858 851.358 559.067 831.763C559.139 825.062 559.447 818.17 558.876 811.502C558.434 806.341 556.036 801.176 554.511 796.238C552.831 790.8 551.509 785.095 550.613 779.475Q548.776 767.306 548.899 755C548.99 749.154 549.91 742.829 549.051 737.06C547.351 725.65 542.925 713.179 539.875 701.964Q530.462 667.925 521.603 633.738C437.002 638.883 349.313 640.901 267.93 613.492C264.167 622.123 260.564 630.757 256.53 639.274C245.399 663.327 227.424 689.518 209.369 708.964C204.723 713.969 199.073 717.982 194.422 722.963C190.748 726.897 188.307 731.341 186.379 736.345C172.001 773.649 169.999 884.104 181.386 922.942C187.727 944.57 206.104 953.002 207.09 978.532C197.751 982.69 185.467 983.122 175.413 982.589C166.384 982.11 149.717 980.624 146.933 969.985C145.649 965.077 146.432 959.263 146.541 954.222C146.61 951.03 146.598 947.42 145.053 944.537C142.906 940.53 138.251 939.142 135.412 935.789C133.336 933.338 132.853 930.13 132.581 927.033C131.759 917.674 132.911 907.763 132.99 898.331C133.119 882.754 132.54 867.214 131.999 851.65Q131.18 822.141 128.152 792.777C125.991 772.224 120.676 740.466 122.923 720.803C124.153 710.044 129.524 702.11 134.108 692.604Q135.046 690.673 135.92 688.713Q136.794 686.752 137.604 684.764Q138.414 682.776 139.158 680.763Q139.903 678.749 140.581 676.712Q141.259 674.676 141.871 672.618Q142.482 670.56 143.026 668.484Q143.57 666.407 144.046 664.314Q144.522 662.221 144.929 660.113Q145.336 658.006 145.674 655.886Q146.012 653.766 146.281 651.636Q146.55 649.507 146.749 647.369Q146.948 645.232 147.078 643.089Q147.207 640.946 147.266 638.801Q147.325 636.655 147.315 634.508Q147.304 632.362 147.223 630.216Q147.142 628.071 146.991 625.93C145.754 609.193 139.465 592.392 134.846 576.32C122.904 534.756 108.327 486.94 109.828 443.503C109.981 439.067 110.792 434.656 111.237 430.24C110.052 431.942 109.558 435.2 108.949 437.268C106.64 445.105 103.073 453.527 97.0402 459.254C94.8336 461.349 92.0758 463.163 88.9092 463.007C86.051 462.866 83.2231 461.146 81.3523 459.048C77.476 454.699 78.3885 448.351 78.579 442.983C77.3363 441.519 76.0171 440.038 75.0994 438.342C71.5126 431.713 73.3431 424.261 75.4233 417.494C74.3214 415.536 73.3514 413.641 72.8266 411.441C70.2277 400.546 73.8345 388.2 79.4049 378.812C78.5085 375.415 77.8644 372.162 77.9765 368.618C78.3633 356.378 84.5949 344.591 93.4033 336.341C94.4775 330.614 96.4756 326.188 100.393 321.855Q101.211 320.967 102.072 320.12Q102.932 319.273 103.833 318.469Q104.733 317.665 105.672 316.905Q106.61 316.145 107.584 315.432Q108.558 314.719 109.566 314.054Q110.574 313.388 111.612 312.773Q112.651 312.157 113.718 311.593Q114.785 311.028 115.879 310.516Q116.972 310.004 118.089 309.546Q119.206 309.087 120.344 308.684Q121.482 308.28 122.638 307.932Q123.794 307.584 124.966 307.292Q126.138 307.001 127.322 306.766Q128.506 306.532 129.701 306.355Q130.895 306.178 132.097 306.06Q133.298 305.941 134.504 305.881C146.264 284.65 166.053 267.916 186.458 255.189C259.745 209.48 352.258 217.313 433.841 229.728Q453.625 232.733 473.347 236.118C484.727 238.017 496.367 240.259 507.916 240.569C535.016 241.299 557.665 225.526 584.83 226.416C596.049 226.784 607.142 230.196 618.009 232.655C622.799 233.738 628.243 233.831 632.466 230.949C649.616 219.246 669.09 146.588 673.702 125.632C659.117 125.092 645.512 120.773 632.712 113.85C622.692 108.43 601.458 94.1703 598.405 82.3195C598.012 80.7935 598.142 79.4473 599.045 78.1119C601.207 74.9142 607.796 72.7476 611.316 71.454C630.918 64.2515 651.954 65.3882 671.26 72.9345C677.937 75.5444 687.17 81.6363 694.548 80.3593Q695.019 80.2741 695.472 80.123Q695.926 79.972 696.354 79.7581Q696.782 79.5442 697.175 79.2718Q697.568 78.9995 697.919 78.6741C699.902 76.8132 701.504 74.3581 703.277 72.278Q708.289 66.4347 714.115 61.4025Q716.359 59.4977 718.735 57.7604Q721.111 56.0231 723.607 54.4625Q726.103 52.9019 728.705 51.5261Q731.307 50.1504 734.002 48.9667C744.517 44.4138 754.593 43.6087 765.868 44.6941C770.213 45.1123 774.676 45.7465 779.03 45.1583C786.843 44.103 794.038 40.044 801.906 38.6513Z"/>
	<path fill="#FEFEFF" d="M740.134 132.321L740.644 133.089C740.368 134.926 740.029 136.882 740.059 138.737C740.103 141.449 741.018 145.838 743.339 147.563C748.671 151.525 753.83 142.879 758.234 142.547L757.894 143.762L758.19 143.039L756.666 145.862C756.194 146.393 755.723 146.881 755.201 147.364C752.883 149.508 750.09 150.717 746.892 150.47Q746.318 150.42 745.751 150.313Q745.185 150.207 744.632 150.045Q744.079 149.883 743.545 149.667Q743.01 149.452 742.5 149.184Q741.989 148.916 741.508 148.6Q741.026 148.283 740.578 147.921Q740.13 147.558 739.721 147.153Q739.311 146.748 738.943 146.304C737.181 144.183 736.155 141.491 736.464 138.718C736.774 135.937 737.965 134.017 740.134 132.321Z"/>
	<path fill="#FEFEFF" d="M884.375 255.073C884.097 257.493 878.483 261.948 876.866 264.128C875.313 266.221 874.049 268.454 873.165 270.911C871.483 275.583 871.434 280.182 871.311 285.083C870.865 282.917 870.437 280.729 869.858 278.594C868.017 271.81 864.73 268.238 858.81 264.805C855.668 262.952 852.802 260.989 849.93 258.74C858.924 262.225 864.614 263.819 870.042 272.54C873.458 264.428 877.098 260.013 884.375 255.073Z"/>
	<path fill="#FEFEFF" d="M739.641 127.588C746.32 127.005 751.867 129.31 757.122 133.302C766.802 140.655 776.542 156.449 778.14 168.476C776.297 166.806 774.519 160.817 773.369 158.32C768.513 148.331 758.873 137.165 748.741 132.306C739.9 128.067 734.502 133.051 726.419 135.935C730.647 132.703 734.663 129.567 739.641 127.588Z"/>
</svg>
