<?xml version="1.0" encoding="utf-8" ?>
<svg xmlns="http://www.w3.org/2000/svg" xmlns:xlink="http://www.w3.org/1999/xlink" width="1024" height="1024">
	<path fill="#FEFEFE" d="M0 0L1024 0L1024 1024L0 1024L0 0Z"/>
	<path d="M626.717 102.195C632.094 101.466 638.382 101.45 643.535 103.295C646.02 104.185 648.646 105.681 649.721 108.226C650.93 111.088 649.784 114.316 648.013 116.669C644.812 120.92 639.344 124.235 635.245 127.657C622.196 138.549 610.686 152.236 604.246 168.108C595.618 189.372 597.151 210.585 612.333 228.42C622.544 240.414 637.344 245.266 651.091 252.061Q665.043 258.958 678.439 266.881Q683.077 269.683 687.645 272.595Q692.214 275.507 696.712 278.529Q701.209 281.55 705.632 284.679Q710.056 287.808 714.403 291.042Q718.75 294.276 723.018 297.614Q727.286 300.951 731.472 304.391Q735.658 307.83 739.761 311.369Q743.863 314.908 747.88 318.545Q751.896 322.182 755.823 325.914Q759.751 329.646 763.588 333.472Q767.424 337.298 771.168 341.214Q774.912 345.131 778.56 349.137Q782.208 353.142 785.759 357.235Q789.31 361.327 792.762 365.503Q796.213 369.68 799.563 373.938Q802.913 378.196 806.16 382.534C870.356 468.99 903.611 583.029 891.698 690.408Q889.785 707.909 885.916 725.084C884.282 732.292 881.831 739.659 880.972 746.997C880.627 749.953 880.725 752.886 881.528 755.764C882.47 759.139 884.501 762.064 886.794 764.664C892.862 771.546 900.5 777.428 907.411 783.474C917.388 792.202 927.037 801.22 935.855 811.138Q939.883 815.582 943.535 820.341Q947.186 825.1 950.437 830.141Q953.688 835.182 956.515 840.472Q959.343 845.762 961.729 851.265C972.174 875.996 975.829 906.984 965.485 932.336Q965.029 930.649 964.538 928.971C957.064 903.23 938.759 887.872 914.248 878.495C901.003 873.428 887.545 869.71 875.045 862.784C857.979 853.328 845.588 840.532 840.21 821.534C802.639 868.168 746.007 836.124 700.841 857.139C692.09 861.211 685.186 866.981 678.374 873.699C678.716 857.02 685.885 840.203 695.277 826.657C723.212 786.367 763.533 776.826 806.532 761.02C814.905 757.942 825.572 754.577 831.887 748.063C839.128 740.592 839.622 722.349 839.543 712.654C839.086 657.245 802.523 598.23 764.27 560.445C695.954 492.967 590.281 467.874 496.911 468.53C487.424 453.176 471.172 438.654 454.724 431.177C450.933 429.453 434.817 423.146 431.474 424.403C437.866 426.933 444.233 428.853 450.36 432.075C490.775 453.326 497.957 490.888 521.472 524.857C538.027 548.771 557.337 565.002 581.494 580.853C587.332 584.613 608.566 596.865 610.946 602.751C610.575 603.959 610.425 604.197 609.283 604.91C604.051 608.176 585.14 604.902 578.619 603.725Q567.561 601.721 556.706 598.809Q545.851 595.896 535.275 592.095C480.028 571.928 408.924 526.905 375.068 478.043C361.296 458.166 355.962 445.365 360.358 421.14C356.39 430.007 354.929 439.386 353.977 448.97C344.224 445.41 333.513 443.059 323.179 442.3C289.54 439.829 219.146 450.123 188.366 462.854C233.017 465.558 277.574 473.153 321.661 480.44Q334.952 482.673 348.29 484.604C355.374 485.593 362.582 486.277 369.578 487.761C378.615 498.876 387.492 508.976 398.002 518.727C395.975 526.432 393.981 533.994 392.958 541.922C389.786 566.513 393.495 594.079 402.951 617.059C407.82 628.894 413.865 638.674 413.497 651.926C413.113 651.764 412.729 651.599 412.354 651.419C401.666 646.28 391.398 635.949 382.855 627.834C335.146 582.512 318.995 541.142 297.986 479.779Q256.404 472.782 214.626 467.078C206.33 465.949 191.53 462.385 183.699 463.983C177.694 465.209 171.508 468.269 165.706 470.295C150.728 475.524 135.597 480.89 120.125 484.456C103.885 488.199 71.3055 492.575 57.4284 483.48C52.1033 479.991 50.5936 475.189 49.3664 469.303L50.607 470.079C54.7508 472.688 58.8565 474.378 63.7074 475.135C92.3046 479.598 143.378 455.683 167.832 441.031C179.034 434.319 189.793 426.285 200.375 418.635C185.736 423.899 172.74 432.185 159.022 439.355C136.783 450.979 94.262 469.916 68.9856 468.922C62.4486 468.665 56.7209 467.043 52.1876 462.108C59.3322 446.297 104.383 423.332 117.181 405.096C122.672 397.272 124.57 381.14 127.313 371.463C134.581 345.824 145.893 322.238 162.622 301.408C217.428 233.166 312.371 205.328 396.45 198.863Q409.391 197.842 422.365 197.441C430.957 197.233 448.926 199.133 456.12 196.279C468.068 191.539 480.137 178.076 490.245 169.831C528.921 138.288 575.958 107.741 626.717 102.195Z"/>
	<path fill="#FEFEFE" d="M256.762 346.64C260.48 346.243 264.259 346.206 267.956 346.812C280.213 348.82 288.791 355.661 295.945 365.474C294.772 369.945 293.251 374.277 290.816 378.227C285.266 387.229 275.208 393.454 264.993 395.719C254.666 398.008 246.18 395.169 237.492 389.652C234.565 387.934 231.56 386.103 228.342 384.988C216.831 380.997 206.771 387.372 196.683 392.233C202.094 387.926 207.361 383.559 212.035 378.438C215.975 374.122 219.416 369.37 223.309 365.009C232.162 355.092 243.647 348.76 256.762 346.64Z"/>
	<path d="M255.299 360.648C260.147 360.082 265.994 360.984 270.033 363.799C273.289 366.07 275.245 369.516 275.778 373.423C276.464 378.443 274.799 383.903 271.636 387.829C267.636 392.796 262.333 394.663 256.209 395.297C251.677 395.045 247.371 393.991 243.473 391.59C239.351 389.049 235.95 385.011 234.922 380.2C234.116 376.433 234.951 372.713 237.208 369.601C241.503 363.681 248.456 361.698 255.299 360.648Z"/>
	<path fill="#FEFEFE" d="M256.359 363.929C257.683 364.041 259.341 364.079 260.434 364.937C261.472 365.753 262.219 366.7 262.292 368.07C262.402 370.143 261.251 371.466 259.92 372.851C259.639 372.842 259.357 372.837 259.076 372.824C257.467 372.753 255.421 372.399 254.431 370.949C253.739 369.935 253.545 369.274 253.64 368.068C253.787 366.185 255.051 365.115 256.359 363.929Z"/>
	<path fill="#FEFEFE" d="M576.214 259.086C583.523 259.093 591.717 261.442 598.811 263.197C634.369 271.994 667.116 286.888 697.671 307.002C766.941 352.602 810.985 409.247 842.381 485.558Q847.918 499.197 852.803 513.084Q857.688 526.97 861.91 541.072Q866.132 555.173 869.682 569.459Q873.232 583.745 876.102 598.183C873.685 594.761 869.788 577.818 868.088 572.562C866.516 567.704 864.616 562.927 862.8 558.155Q850.723 526.228 835.422 495.714Q828.591 482.341 821.017 469.374Q813.444 456.407 805.153 443.887Q796.862 431.367 787.879 419.333Q778.897 407.3 769.251 395.791C720.403 337.864 648.842 282.388 576.214 259.086Z"/>
</svg>
