<?xml version="1.0" encoding="utf-8" ?>
<svg xmlns="http://www.w3.org/2000/svg" xmlns:xlink="http://www.w3.org/1999/xlink" width="1024" height="1024">
	<path fill="#FEFEFE" d="M0 0L1024 0L1024 1024L0 1024L0 0Z"/>
	<path d="M771.731 671.409C771.902 674.048 770.234 677.902 769.482 680.494C766.509 690.736 763.188 700.57 759.142 710.439C754.796 721.039 749.808 731.533 746.223 742.416C735.809 774.021 724.38 842.89 728.073 875.307C730.299 894.837 742.587 912.416 757.765 924.426C765.35 925.38 773.096 926.933 779.749 930.883C794.187 939.457 797.967 956.985 801.756 972.083C775.774 971.657 749.738 972.02 723.748 971.971C720.651 958.425 713.835 946.049 703.47 936.785C698.308 932.929 693.339 931.105 687.082 929.713C683.617 919.094 678.682 907.612 673.211 897.868C671.809 901.608 670.987 905.123 670.594 909.084C661.187 886.302 667.384 861.272 666.919 837.367Q666.335 806.676 662.584 776.209C661.519 767.266 658.67 756.743 658.544 747.961C658.395 737.637 662.011 726.085 664.154 715.97Q667.843 714.565 671.455 712.973Q675.067 711.381 678.593 709.606Q682.119 707.831 685.549 705.878Q688.979 703.925 692.305 701.798Q695.631 699.672 698.843 697.378Q702.055 695.084 705.146 692.628Q708.237 690.173 711.197 687.562Q714.158 684.951 716.981 682.192C710.789 696.36 707.834 707.046 698.444 720.151C722.347 710.967 755.941 691.391 771.731 671.409Z"/>
	<path d="M391.154 673.206C411.582 671.988 431.023 680.087 449.555 687.632Q448.954 690.653 448.265 693.656Q447.576 696.658 446.799 699.639Q446.021 702.62 445.157 705.577Q444.292 708.533 443.34 711.463Q442.389 714.393 441.352 717.294Q440.314 720.194 439.192 723.063Q438.07 725.932 436.863 728.767Q435.657 731.601 434.368 734.399Q433.078 737.197 431.707 739.955Q430.336 742.714 428.884 745.431Q427.433 748.148 425.902 750.821Q424.37 753.494 422.761 756.121Q421.152 758.748 419.466 761.326Q417.78 763.904 416.019 766.432Q414.258 768.959 412.423 771.434Q410.589 773.908 408.682 776.328C396.129 792.358 382.842 807.354 374.033 825.93C371.354 831.58 368.73 837.685 367.811 843.917C365.705 858.179 372.518 881.934 377.461 895.73C381.632 907.369 390.911 927.193 405.248 928.217C413.025 928.773 420.139 927.694 427.461 931.209C442.281 938.323 456.207 957.128 461.356 972.466L448.122 972.378C444.647 964.604 439.849 957.664 434.145 951.375C432.695 949.892 431.072 948.63 429.461 947.327C436.342 954.861 440.53 962.549 442.901 972.457L367.313 972.412C361.97 965.5 352.333 955.019 348.119 947.965C345.157 943.009 343.928 936.873 341.969 931.457C339.548 924.766 336.736 918.308 333.694 911.879Q323.343 890.288 311.979 869.213C308.188 862.077 303.38 854.828 300.559 847.275C299.504 844.452 298.735 841.372 299.293 838.355C300.482 831.927 313.476 812.589 317.134 804.296C324.09 788.525 329.333 766.706 322.858 749.933C347.583 731.329 365.125 706.563 373.958 676.837C379.687 675.064 385.163 673.686 391.154 673.206Z"/>
	<path d="M751.199 43.2873C752.903 44.745 754.101 47.5863 755.532 49.4168C759.058 53.9276 762.858 58.319 766.947 62.3281C791.193 86.0963 809.579 90.7981 818.019 127.605C822.267 109.662 822.33 92.5592 819.098 74.4597C839.28 95.4646 845.109 120.815 844.775 149.214C852.884 141.591 857.824 133.955 860.215 123.056Q861.078 128.25 861.28 133.512Q861.482 138.773 861.02 144.018C859.466 160.632 853.508 177.537 840.35 188.382C849.577 195.037 856.395 203.165 864.772 210.636C867.83 213.364 871.912 214.821 874.776 217.77C879.443 222.576 877.213 231.264 882.369 237.663C886.697 243.033 893.049 247.623 898.312 252.116C909.783 261.909 929.474 279.084 936.781 291.977C937.686 293.572 938.514 294.935 938.001 296.814C933.548 300.569 920.364 295.777 915.47 293.763C913.759 293.058 911.015 291.185 909.235 291.27C909.143 291.399 909.031 291.516 908.959 291.658C908.366 292.826 908.645 294.702 908.976 295.929C910.217 300.525 917.667 302.903 921.469 305.237C923.109 309.369 923.984 314.009 925.068 318.319C927.373 315.46 929.324 312.238 931.546 309.296C934.006 306.04 936.782 302.991 939.404 299.862C935.383 316.618 921.248 336.523 908.727 348.296C907.574 345.903 906.534 343.441 905.451 341.014C896.988 344.771 889.05 350.354 880.106 352.896C858.917 358.919 841.743 346.164 821.633 342.931C815.09 341.88 809.075 342.293 802.524 343.061C819.139 344.576 834.088 349.884 849.805 354.971C868.868 361.141 885.984 354.263 903.012 345.59C904.874 349.822 906.525 354.026 907.161 358.636C907.943 364.307 906.81 369.742 903.226 374.282C894.996 384.703 879.646 388.83 867.158 390.543C867.937 385.248 868.165 380.08 866.211 374.966C862.933 366.387 856.052 361.651 848.016 358.052C842.368 360.603 837.524 365.542 834.911 371.147C832.507 376.302 832.247 381.052 834.286 386.353C836.673 392.561 840.803 398.6 844.877 403.812C859.337 422.306 873.008 428.727 893.931 437.6C878.669 437.212 861.974 435.963 847.941 429.612C853.655 436.353 860.499 442.194 866.963 448.206C892.878 472.307 904.985 488.024 906.623 524.654C906.028 522.788 905.36 520.988 904.507 519.222C893.872 497.199 867.894 480.849 845.434 473.18C853.569 480.425 859.986 487.864 865.405 497.38C879.434 522.019 885.013 551.612 877.501 579.198C873.344 554.332 865.03 540.115 849.763 520.537C859.489 546.792 858.791 569.103 853.49 596.061C850.539 580.629 846.722 565.247 839.463 551.197Q839.661 559.555 838.902 567.881C835.767 605.408 825.221 638.595 795.447 663.825C802.099 644.382 804.873 624.848 804.024 604.321C800.241 612.702 797.183 621.244 792.975 629.471C776.488 661.708 752.876 682.249 722.013 700.005C727.546 684.19 730.208 667.668 731.699 651.038C716.362 678.254 695.564 695.567 667.011 707.636C679.61 675.808 692.339 642.137 697.314 608.102L696.416 607.137L697.17 606.026C695.436 609.644 694.873 616.361 693.77 620.59Q690.288 633.446 685.895 646.02Q681.413 658.884 675.793 671.292C671.173 681.469 666.035 691.503 662.658 702.182C650.694 740.022 640.607 838.673 645.935 877.967C648.526 897.077 656.697 925.878 677.301 932.926C685.14 935.608 692.382 935.683 699.322 941.044C710.421 949.618 716.615 965.166 718.253 978.721L698.497 978.844C697.272 975.547 695.912 972.227 694.121 969.193C687.176 957.427 676.818 952.686 664.079 949.42C677.646 958.04 686.391 963.298 692.68 978.785C667.082 978.041 641.073 978.35 615.464 978.711C610.008 960.586 604.262 942.612 598.515 924.581C595.397 929.886 593.885 935.707 592.503 941.652C589.575 929.062 587.963 915.792 590.824 903.04C585.015 906.4 580.084 911.195 575.345 915.88C579.462 898.42 585.425 881.112 586.341 863.074C587.224 845.684 583.64 827.285 580.586 810.246C573.483 770.613 564.987 730.153 548.31 693.319C551.335 688.987 553.681 684.06 555.977 679.306C567.128 656.215 572.469 630.627 570.232 605.02C569.443 611.126 569.731 617.523 569.068 623.696C567.348 639.698 561.368 655.601 554.556 670.048C550.892 677.821 544.943 684.497 542.313 692.712C543.859 700.211 547.821 706.779 551.479 713.404C527.183 708.257 503.108 699.653 479.702 691.423C445.956 679.557 410.679 662.243 374.35 673.948C377.452 659.916 379.235 643.933 378.19 629.609C372.204 682.974 352.509 722.846 310.28 757.055C288.159 774.975 264.959 791.544 245.782 812.793C241.025 818.064 236.538 823.625 233.334 829.994C221.734 853.055 214.145 897.74 215.503 923.474C225.364 925.635 235.544 926.268 244.192 932.05C256.322 940.16 270.171 957.697 273.01 972.26L255.89 972.348C251.584 959.866 245.951 950.202 234.782 942.832C243.453 951.325 248.354 960.532 250.696 972.409L171.367 972.532C167.918 963.095 162.552 954.959 158.084 946.035C159.097 939.601 161.747 933.322 163.764 927.142C168.587 912.356 171.939 897.945 172.134 882.294C172.147 871.09 171.524 859.834 170.771 848.658C169.876 835.375 167.19 817.653 170.224 804.805C172.239 796.269 182.281 789.418 187.952 783.025Q193.444 776.726 198.237 769.88Q201.548 765.072 204.506 760.039Q207.464 755.006 210.053 749.774Q212.642 744.542 214.849 739.138Q217.056 733.734 218.87 728.185C224.218 711.715 227.39 693.667 228.973 676.456C229.814 667.314 230.017 658.113 230.839 648.959C233.929 614.578 242.211 583.887 259.155 553.67C253.453 559.565 249.03 568.995 245.766 576.438C230.64 610.923 225.566 647.906 224.934 685.309C224.143 686.763 223.266 688.132 222.312 689.484C208.513 709.021 187.724 726.417 163.568 730.528C145.913 733.533 129.34 728.891 114.94 718.453C97.7942 706.024 87.5291 684.167 84.3789 663.67C73.7308 594.386 126.454 541.825 176.539 503.433C201.853 484.029 232.314 464.883 251.176 438.692C259.47 427.177 265.682 411.324 263.261 396.934Q263.095 395.941 262.863 394.961Q262.631 393.982 262.332 393.02Q262.034 392.059 261.671 391.12Q261.309 390.181 260.883 389.268Q260.458 388.356 259.971 387.475Q259.485 386.593 258.94 385.747Q258.395 384.9 257.794 384.093Q257.193 383.285 256.539 382.52C245.543 369.9 228.53 373.643 213.942 374.709C206.112 375.282 198.19 375.578 190.376 374.632C173.124 372.544 156.844 364.846 142.889 354.793Q147.369 356.104 151.941 357.047Q156.513 357.99 161.146 358.559Q165.779 359.128 170.444 359.319Q175.108 359.51 179.772 359.323C176.861 358.776 173.937 358.239 171.069 357.495C155.048 353.338 143.574 343.846 135.257 329.632C124.802 311.763 123.298 288.096 128.474 268.37C130.008 280.823 131.497 292.028 137.124 303.474C142.953 315.331 153.844 327.585 166.659 331.987C152.198 321.865 143.151 312.61 137.847 295.315C130.1 270.058 140.08 238.156 152.053 215.798C149.517 230.056 150.808 243.838 156.958 257.071C165.421 275.279 182.751 287.235 201.114 293.992C191.807 284.935 187.7 275.972 186.078 263.067C196.549 282.613 213.833 290.736 230.822 303.358C254.471 320.93 259.799 330.736 264.029 359.398C276.8 371.244 283.981 383.6 284.692 401.302C286.627 449.476 240.697 482.188 208.035 510.123C190.637 525.004 173.511 539.877 158.017 556.789C133.722 583.306 113.151 616.549 114.942 653.82C115.616 667.86 119.981 682.012 130.698 691.668C136.634 697.017 144.002 699.606 152.008 699.18C193.371 696.979 203.959 623.831 211.454 593.145Q214.689 579.466 219.931 566.424C230.533 540.464 246.334 518.768 269.052 502.121C283.177 491.771 301.757 481.471 318.861 477.65C328.93 475.4 340.003 475.283 350.31 474.406Q371.337 472.769 392.129 469.236Q408.308 466.685 424.301 463.147Q440.293 459.609 456.038 455.097Q471.783 450.585 487.222 445.116Q502.661 439.646 517.736 433.241C540.73 423.663 565.469 412.557 582.543 393.759L582.248 393.053L581.888 393.196L582.865 393.219C582.776 393.145 582.711 392.972 582.598 392.997C581.256 393.299 577.633 396.826 576.299 397.783Q568.913 403.161 560.971 407.68C538.591 420.269 513.935 431.434 487.558 428.751C503.142 424.383 517.409 417.824 531.811 410.527C521.988 409.313 513.101 407.375 504.021 403.348C525.324 401.179 544.593 392.161 561.674 379.594C565.833 376.534 569.99 373.498 573.615 369.8C573.146 369.554 566.671 374.309 565.614 374.971Q559.441 378.858 552.711 381.674C537.226 388.052 520.84 388.134 504.522 385.668C513.471 382.631 522.411 379.599 530.739 375.064C547.664 365.847 559.324 352.395 564.834 333.912C534.263 337.848 501.666 332.221 476.513 313.711C498.626 313.052 522.938 303.925 541.433 292.069C548.497 287.541 555.084 282.13 561.696 276.976C545.006 284.011 526.744 285.698 508.934 287.829C531.16 279.462 536.272 265.831 551.415 250.551C557.954 243.953 565.267 238.942 573.462 234.628C545.834 234.34 525.214 227.252 503.604 210.021C537.157 214.831 557.385 199.758 585.187 185.652C591.476 182.462 598 179.879 604.555 177.298C585.502 174.256 567.037 169.653 552.116 156.703C575.671 156.732 596.422 148.986 617.724 139.826C630.093 134.507 642.667 129.071 656.079 127.076C646.696 123.492 637.3 120.401 627.203 119.853C627.399 119.687 627.593 119.52 627.79 119.356C642.087 107.556 663.347 104.285 681.247 106.037C665.207 92.6497 655.085 73.4636 649.458 53.6105C668.839 67.8771 689.426 75.102 712.694 80.1993C728.962 83.7631 744.266 86.7603 759.503 93.9479C756.996 89.5999 754.471 85.2158 752.449 80.6154C747.109 68.4616 746.387 55.7224 751.199 43.2873Z"/>
	<path fill="#FEFEFE" d="M848.292 226.167C849.698 226.074 851.324 225.88 852.719 226.118C854.126 226.358 855.667 227.199 856.311 228.514C857.239 230.409 856.596 232.545 856.028 234.429C853.019 233.051 849.212 229.964 847.705 226.973L848.292 226.167Z"/>
	<path fill="#FEFEFE" d="M836.814 227.712L841.288 227.518C849.703 241.934 849.009 242.464 864.298 249.334C859.194 249.727 854.047 250.449 849.007 249.289C841.181 245.786 825.562 234.826 819.758 228.524C825.478 228.507 831.115 228.148 836.814 227.712Z"/>
	<path fill="#FEFEFE" d="M720.241 137.943C739.631 146.866 758.249 157.462 768.427 177.182C770.036 180.3 773.763 187.432 772.693 190.832L771.576 190.203L772.432 190.019C771.45 185.649 768.948 182.029 766.481 178.356C758.479 166.44 739.155 151.294 724.996 148.526L724.158 149.201C718.573 159.485 713.672 170.347 714.589 182.325C715.49 194.074 721.448 203.761 730.148 211.341C724.173 207.77 716.503 205.997 711.235 201.477C706.082 197.056 703.988 189.953 703.502 183.382C702.326 167.484 709.93 149.754 720.241 137.943Z"/>
	<path fill="#FEFEFE" d="M701.281 211.157C706.654 210.42 711.402 210.983 716.608 212.363C699.913 218.505 687.831 227.96 676.904 241.771C684.103 238.884 690.583 237.654 698.332 237.138C692.199 241.78 687.187 246.84 683.033 253.359C668.181 276.66 668.814 305.836 674.578 331.813C680.19 316.48 686.167 303.972 698.775 292.999Q697.863 295.203 697.062 297.449Q696.261 299.696 695.573 301.98Q694.885 304.263 694.312 306.579Q693.739 308.894 693.282 311.235Q692.825 313.576 692.486 315.937Q692.147 318.297 691.925 320.672Q691.704 323.047 691.602 325.43Q691.499 327.813 691.516 330.198C691.487 357.368 698.146 379.073 717.567 398.399C716.477 383.976 719.38 367.227 725.965 354.308Q725.885 360.203 726.366 366.078Q726.847 371.954 727.883 377.757C733.37 406.919 750.883 431.33 775.18 447.859C773.455 442.791 771.315 437.886 769.69 432.774C765.072 418.241 764.293 402.934 767.925 388.117C768.341 403.709 770.238 418.008 776.177 432.59C779.757 441.38 785.02 449.406 789.513 457.743C795.901 469.598 800.082 482.292 803.061 495.383C805.185 508.652 805.487 521.035 804.097 534.382C801.653 511.18 794.345 490.848 780.572 471.898C782.718 481.104 784.902 491.446 784.391 500.9C782.555 495.463 780.59 490.103 777.85 485.045C766.686 464.434 746.602 445.304 730.757 428.046C732.104 437.861 734.593 446.725 737.661 456.111C730.139 447.415 722.16 439.096 714.837 430.23C692.966 403.748 685.375 382.074 675.823 349.819C674.984 364.003 674.625 377.539 675.55 391.732C668.089 378.684 662.193 363.406 658.314 348.882C649.622 316.336 649.225 279.329 666.535 249.528C658.23 253.761 652.12 257.771 646.308 265.107C649.348 254.869 653.427 245.754 659.788 237.1C670.219 222.908 683.856 213.872 701.281 211.157Z"/>
</svg>
