<?xml version="1.0" encoding="utf-8" ?>
<svg xmlns="http://www.w3.org/2000/svg" xmlns:xlink="http://www.w3.org/1999/xlink" width="1024" height="1024">
	<path fill="#FFFEFF" d="M0 0L1024 0L1024 1024L0 1024L0 0Z"/>
	<path fill="#0C0C0C" d="M977.797 287.316C977.992 287.974 978.166 288.565 978.206 289.256C978.81 299.672 973.068 313.659 966.348 321.427C965.289 322.652 964.61 323.414 962.963 323.527L962.035 322.226C961.203 320.91 960.395 319.505 959.882 318.031C955.6 305.727 972.835 297.751 977.517 287.919L977.797 287.316Z"/>
	<path fill="#0C0C0C" d="M908.657 124.48C909.692 124.411 910.8 124.311 911.822 124.528C914.984 125.202 917.831 128.147 919.413 130.822C926.832 143.358 925.065 159.382 921.747 172.842C916.468 169.322 911.22 165.763 905.759 162.529C897.452 157.74 888.592 153.794 880.023 149.484C884.174 146.324 888.274 143.083 892.043 139.471C897.432 134.307 902.22 128.378 908.657 124.48Z"/>
	<path fill="#0C0C0C" d="M406.535 605.607C412.475 604.996 418.307 605.302 424.093 606.812C435.868 609.886 447.054 616.36 457.987 621.62Q473.138 628.965 488.841 635.041C486.669 643.881 484.481 652.699 481.398 661.276C471.532 688.725 454.406 713.859 434.29 734.81C425.886 743.562 414.261 752.458 409.357 763.81C403.245 777.956 407.054 796.511 412.597 810.211C416.453 819.745 428.962 842.642 440.984 842.909C443.194 842.958 445.718 841.978 447.841 841.39C454.852 839.449 462.056 839.306 468.832 842.264C477.089 845.868 482.169 852.243 485.432 860.455C486.861 864.837 486.979 868.825 486.98 873.375C474.143 875.249 423.954 876.268 412.766 874.126C410.177 873.631 408.133 872.618 405.98 871.11C389.531 859.592 367.922 822.788 358.961 804.656Q352.743 791.831 347.812 778.458C344.61 770.027 340.625 760.058 341.01 750.925C341.336 743.195 346.986 736.025 350.345 729.319C361.56 706.936 358.072 680.521 353.732 656.878C353.928 656.55 354.13 656.224 354.342 655.905C362.212 644.064 382.152 618.802 393.962 610.714C397.887 608.025 401.895 606.564 406.535 605.607Z"/>
	<path fill="#0C0C0C" d="M774.243 112.418C776.345 112.349 777.256 112.684 778.696 114.214C784.392 120.266 788.822 127.34 794.905 133.109C800.119 138.053 808.458 144.354 815.576 145.891C821.041 147.072 827.407 145.799 832.965 145.568C844.392 145.091 855.963 145.259 867.166 147.791C890.923 153.159 932.173 180.489 945.021 201.03C944.525 203.607 943.717 206.163 943.031 208.698C945.83 217.551 952.111 224.736 957.221 232.361C963.896 242.321 980.731 268.356 978.991 279.923C978.963 280.11 978.903 280.291 978.859 280.475L979.424 280.301L978.128 279.898C977.954 279.251 977.717 278.617 977.503 277.982C976.006 277.51 974.084 278.117 972.554 278.425C965.792 279.786 956.817 274.343 950.575 276.566C949.22 277.048 949.14 277.285 948.556 278.498C949.233 283.67 955.984 288.155 958.569 292.877C960.983 297.284 961.369 302.005 958.556 306.312C950.704 318.336 914.364 328.239 910.646 340.051L911.227 340.484C914.919 339.7 924.359 332.923 928.53 330.848C937.789 326.243 947.741 322.33 957.716 319.634C959.628 325.843 960.356 331.52 959.156 337.959C957.663 345.969 953.442 353.727 946.481 358.231C938.979 363.086 927.819 364.317 919.205 362.397C905.745 359.396 901.809 345.541 895.215 335.149C885.781 331.603 878.915 324.077 870.412 318.923C866.517 316.561 862.151 314.709 858.045 312.727C840.198 304.112 822.434 296.205 811.361 278.806C800.109 261.127 801.297 240.752 805.769 221.133C802.062 227.993 798.843 234.85 796.536 242.33C791.364 259.104 792.842 276.84 801.111 292.408C811.763 312.464 830.06 320.415 850.606 326.738C840.845 329.536 831.053 330.975 821.001 328.918C805.93 325.835 793.094 315.952 784.818 303.191C773.475 285.702 770.661 262.79 772.885 242.417C773.693 235.011 775.377 227.726 776.921 220.447C772.578 229.179 769.53 239.874 767.391 249.38C761.865 273.939 763.413 297.548 777.314 319.109C789.848 338.548 813.632 351.294 836.849 344.859C844.175 342.828 850.914 337.886 858.344 336.716C864.174 335.798 870.326 337.227 875.991 338.479Q874.107 340.792 872.301 343.167C858.716 361.208 852.612 387.966 859.04 409.755C861.907 419.476 866.657 428.457 869.249 438.321C873.422 454.199 874.952 471.136 876.084 487.472C878.326 519.821 872.994 545.663 861.776 575.859C856.875 589.052 851.418 601.869 847.403 615.39C838.242 646.238 832.626 678.883 827.021 710.534Q822.585 735.037 819.235 759.713C816.31 780.344 812.5 803.372 815.451 824.165C816.581 832.121 818.77 838.305 825.522 843.274C831.088 847.371 839.007 850.563 845.967 849.987C849.509 849.694 853.002 848.708 856.526 848.244C862.38 847.473 867.665 849.205 872.283 852.756C878.648 857.651 884.397 865.594 885.277 873.755C885.577 876.542 885.132 879.406 883.295 881.617C880.236 885.297 875.77 885.219 871.404 885.598C872.048 879.666 872.191 873.83 869.421 868.338C867.539 864.606 864.219 861.375 860.092 860.227C859.097 859.95 859.001 859.88 858.097 860.43C858.075 860.571 858.035 860.71 858.032 860.852C857.957 864.663 863.332 868.116 865.54 870.791C869.046 875.04 868.953 880.689 868.462 885.869C862.23 886.447 856.049 886.533 849.798 886.503Q850.07 884.57 850.24 882.625C850.66 877.339 849.198 871.896 845.646 867.886C843.878 865.891 841.082 863.749 838.304 863.621C837.154 863.568 836.977 863.643 836.149 864.345C837.498 869.936 846.233 869.771 847.487 886.729C841.211 887.007 834.905 886.784 828.627 886.647C811.371 886.27 799.872 884.68 786.065 873.69C772.358 862.779 771.206 844.854 769.295 828.678C764.968 832.886 761.228 836.182 755.934 839.08C758 826.539 759.502 814.143 759.806 801.428C760.882 756.423 751.48 709.299 751.456 663.734C776.424 653.486 797.065 634.581 813.54 613.515C843.188 575.603 854.591 535.989 859.289 488.71C860.201 479.528 862.196 464.649 861.116 455.764C858.946 476.623 853.757 497.841 846.97 517.666C841.147 534.672 833.043 553.964 823.339 569.129C807.934 593.2 779.209 618.928 753.575 631.496C756.866 616.191 760.578 598.925 759.71 583.224C758.143 586.637 758.458 592.611 757.914 596.449C757.534 599.129 756.815 601.732 756.13 604.346C753.189 615.563 749.868 626.716 747.263 638.015Q741.852 661.733 737.915 685.739Q733.978 709.745 731.528 733.948C728.594 760.872 726.66 788.284 730.114 815.248C731.878 829.025 739.128 863.921 755.26 867.973C757.844 868.622 760.758 868.726 763.408 869.028C772.465 870.062 779.761 871.814 787.072 877.529C793.437 882.505 799.28 889.736 800.11 898.077C800.336 900.347 799.884 902.633 798.351 904.384C794.724 908.522 788.486 908.331 783.457 908.702C785.766 905.47 786.206 901.153 785.7 897.258C785.108 892.696 782.806 888.026 778.982 885.33C777.177 884.058 775.278 883.186 773.042 883.554C771.831 885.613 777.763 890.544 779.11 892.512C782.257 897.108 782.275 903.397 782.482 908.738C776.709 909.27 770.882 909.136 765.127 909.884C765.614 905.301 766.297 900.413 765.145 895.891C764.037 891.544 761.75 887.57 757.73 885.372C756.032 884.443 753.289 883.52 751.4 884.066L751.236 884.871C752.919 888.284 756.603 890.901 759.086 893.799C762.819 898.153 762.254 904.819 761.894 910.167C753.689 910.966 745.146 910.632 736.907 910.672C737.48 905.539 737.433 900.7 735.694 895.763C734.211 891.554 731.627 888.082 727.482 886.239C725.368 885.299 722.551 884.353 720.313 885.44C719.691 885.741 719.843 885.696 719.674 886.337C720.798 889.476 725.907 891.324 728.241 893.609C732.517 897.796 733.372 904.899 733.591 910.592C722.427 910.546 710.751 911.26 701.236 904.385C682.672 890.972 678.51 859.839 675.149 838.708C669.676 844.541 664.517 850.07 656.861 852.906C660.178 843.684 662.894 834.365 664.139 824.619C669.972 778.948 654.397 713.927 639.41 670.919C633.519 654.014 625.961 637.755 619.97 620.883C621.781 615.289 623.756 609.793 625.427 604.148C630.438 588.55 639.572 561.605 640.673 546.004C635.22 565.112 627.962 584.519 619.644 602.573C616.564 609.258 612.253 615.473 609.513 622.267C614.192 636.811 621.388 652.262 629.437 665.283C595.801 657.902 563.176 649.178 530.555 638.116C509.95 631.128 489.401 622.835 469.579 613.857C457.851 608.545 446.412 601.952 434.21 597.813C428.364 595.831 422.105 594.589 415.915 594.645Q415.03 594.653 414.147 594.7C407.702 595.039 401.288 596.81 395.746 600.149C375.388 612.413 360.002 644.698 346.598 664.737C337.343 678.573 326.666 692.307 314.784 703.987C301.859 716.693 287.375 728.089 272.541 738.473C263.769 744.613 250.404 751.942 243.426 759.454C232.794 770.9 229.442 796.048 230.073 810.95C230.511 821.297 232.008 831.807 235.733 841.52C247.123 871.22 269.102 849.033 287.018 865.806C295.535 873.779 297.75 882.997 298.105 894.245C293.489 896.013 288.573 897.018 283.758 898.079C284.72 892.331 284.845 887.596 282.694 882.029C280.617 876.653 277.659 872.543 272.155 870.294C270.59 869.654 269.455 869.38 267.868 869.997L267.802 871.041C269.354 873.762 272.248 875.797 274.477 877.978C280.201 883.579 280.897 890.981 280.948 898.641C271.878 900.596 262.453 900.605 253.218 900.784C254.617 895.413 255.582 889.774 253.716 884.364C252.413 880.587 249.852 877.574 246.224 875.856C243.492 874.563 240.779 873.945 237.89 874.967L237.53 875.745C239.129 878.229 244.378 879.769 246.812 882.046C252.077 886.969 252.056 893.832 252.322 900.514C237.919 901.013 215.861 899.923 201.841 896.703C194.63 887.495 191.389 874.334 188.741 863.076C180.963 830.004 178.006 795.023 178.72 761.097C178.862 754.4 178.694 747.035 179.996 740.461C181.976 730.463 191.757 722.964 197.575 715.034C202.575 708.218 207.399 700.622 211.067 693.006C228.421 656.969 235.345 615.868 241.152 576.59C243.757 558.974 245.312 540.15 251.062 523.228C257.801 503.396 266.339 483.648 278.232 466.341C283.12 459.227 289.36 452.785 293.859 445.523C291.407 446.817 288.709 450.324 286.745 452.354C271.366 468.253 259.539 486.657 252.336 507.612C249.648 515.433 248.992 525.259 245.117 532.427C242.2 537.824 238.315 542.832 234.758 547.828C222.338 565.275 208.793 582.522 192.72 596.777C172.344 614.848 147.368 628.465 119.406 626.632C97.1158 625.172 77.2279 614.234 62.6957 597.494C39.0461 570.252 31.9165 533.833 34.6491 498.72Q34.7977 497.015 34.9877 495.314Q35.1777 493.614 35.4089 491.918Q35.6401 490.222 35.9123 488.533Q36.1846 486.843 36.4978 485.161Q36.811 483.478 37.1649 481.804Q37.5188 480.13 37.9133 478.464Q38.3078 476.799 38.7425 475.144Q39.1773 473.489 39.6521 471.845Q40.1268 470.201 40.6414 468.568Q41.1559 466.936 41.71 465.317Q42.264 463.698 42.8571 462.093Q43.4502 460.487 44.0822 458.897Q44.7141 457.307 45.3844 455.732Q46.0547 454.157 46.7631 452.6Q47.4714 451.042 48.2173 449.501Q48.9633 447.961 49.7464 446.44Q50.5295 444.918 51.3493 443.416Q52.1691 441.914 53.0251 440.432Q53.8811 438.95 54.7728 437.489Q55.6645 436.029 56.5914 434.59Q57.5183 433.151 58.4798 431.736Q59.4414 430.32 60.437 428.928Q61.4326 427.536 62.4617 426.169Q63.4908 424.801 64.5527 423.46Q65.6147 422.117 66.7089 420.802Q67.8031 419.486 68.929 418.197Q70.0548 416.908 71.2116 415.647Q72.3684 414.386 73.5554 413.153Q74.7425 411.92 75.9591 410.717Q77.1757 409.513 78.4212 408.34Q79.6666 407.166 80.9402 406.023Q82.2138 404.88 83.5147 403.768C104.524 386.059 130.927 375.706 158.594 378.074C177.236 379.67 195.725 387.304 207.924 401.889C218.359 414.366 223.136 431.878 221.643 447.972C219.81 467.738 208.348 489.398 193.031 502.04C186.811 507.174 179.384 511.514 170.993 510.479C166.192 509.888 161.622 507.662 158.729 503.699C148.263 489.363 169.073 476.107 176.724 466.89C182.449 459.994 187.162 451.705 188.699 442.781C190.034 435.034 188.455 427.525 183.859 421.117C178.132 413.131 168.83 408.296 159.245 406.828C142.137 404.208 125.302 411.531 111.815 421.562C88.5892 438.837 71.2767 466.723 67.186 495.459C63.5585 520.942 67.5593 548.439 83.4045 569.343C91.7836 580.397 103.268 589.106 117.324 590.965C128.092 592.388 139.188 589.702 148.818 584.916C160.87 578.925 171.067 570.318 179.945 560.273C189.575 549.377 197.502 536.898 205.02 524.491C223.137 494.597 237.966 462.465 258.302 433.969C272.952 413.44 291.049 395.039 312.219 381.206C354.556 353.543 407.015 360.552 454.327 366.128C478.132 368.933 502.138 371.913 526.117 372.469C548.071 372.979 569.694 371.019 590.766 364.568C602.011 361.125 612.748 357.035 622.687 350.629C632.293 344.437 656.042 326.539 662.28 318.377C665.328 314.389 667.058 309.088 669.177 304.551Q674.596 293.1 680.292 281.785C698.656 246.126 727.285 202.003 759.495 177.29C756.478 162.325 755.187 144.232 760.278 129.564C762.823 122.23 767.115 115.918 774.243 112.418Z"/>
	<path fill="#FFFEFF" d="M896.231 213.534C898.407 213.58 900.637 213.721 902.479 215.019C903.696 215.876 904.338 216.934 904.614 218.384C903.039 217.838 901.488 216.776 899.843 217.05C899.024 218.875 899.875 220.912 899.398 222.956L898.491 223.37L897.948 222.993L898.449 221.242C898.001 220.103 897.909 220.241 896.939 219.62C895.791 219.938 895.27 219.948 894.125 219.615L893.839 219.07L893.554 219.427C893.703 219.666 893.806 219.94 894 220.143C895.932 222.159 897.426 223.323 898.508 226.062L898.078 226.36C897.509 226.303 896.697 226.275 896.144 226.065C894.625 225.488 893.531 224.17 892.887 222.715C892.055 220.837 891.758 217.77 892.779 215.894C893.63 214.327 894.686 214.181 896.231 213.534Z"/>
	<path fill="#FFFEFF" d="M903.1 276.666C915.011 275.035 930.048 277.977 940.248 284.33L929.724 281.59C916.24 278.303 904.359 277.588 890.619 279.753C894.63 278.076 898.824 277.321 903.1 276.666Z"/>
	<path fill="#FFFEFF" d="M938.187 301.643C939.089 301.535 939.868 301.639 940.767 301.728C933.428 305.683 924.378 307.634 916.401 310.056Q904.939 313.592 893.603 317.512C892.958 317.715 892.391 317.708 891.72 317.736C899.121 312.277 928.057 303.401 938.187 301.643Z"/>
	<path fill="#FFFEFF" d="M936.86 295.224C938.508 295.252 939.915 295.265 941.485 295.803C940.165 296.997 921.263 299.19 918.265 299.811Q901.735 303.354 885.87 309.193C884.364 309.836 882.825 310.337 881.271 310.849C881.372 310.729 881.453 310.589 881.575 310.49C883.305 309.101 886.434 308.135 888.514 307.23C904.036 300.476 919.922 296.311 936.86 295.224Z"/>
	<path fill="#FFFEFF" d="M920.177 286.732C928.365 286.82 936.073 287.045 943.934 289.618C937.899 289.92 931.714 289.373 925.673 289.201C917.369 288.964 908.838 289.32 900.617 290.486C895.263 290.881 889.101 292.075 883.993 293.766C883.814 293.826 883.635 293.889 883.456 293.95C890.494 288.462 911.107 287.102 920.177 286.732Z"/>
	<path fill="#FFFEFF" d="M500.85 384.896L511.49 385.078C495.3 395.368 484.718 407.658 476.004 424.643L471.571 434.636C476.822 413.968 486.724 400.225 500.85 384.896Z"/>
	<path fill="#FFFEFF" d="M879.977 211.945C883.799 212.207 888.716 211.98 892.063 214.063C892.56 215.411 892.325 215.734 891.847 217.046C891.475 218.069 890.982 219.124 890.91 220.223C890.792 222.028 891.697 223.587 892.841 224.904C897.568 230.348 900.39 227.23 905.224 229.569C906.198 230.04 907.106 231.245 907.816 232.05C907.517 232.148 907.22 232.252 906.921 232.348C901.918 233.96 895.629 234.679 890.866 232.033C883.862 228.142 881.889 219.087 879.977 211.945Z"/>
	<path fill="#FFFEFF" d="M893.331 197.213C898.006 197.304 902.886 197.597 907.192 199.602C916.595 203.981 915.54 214.644 917.474 223.273C918.62 228.385 920.411 233.26 922.227 238.16C917.24 233.536 915.35 229.752 913.327 223.306C912.589 219.923 912.055 216.161 910.537 213.024C905.897 203.433 891.861 205.861 883.012 205.03C878.285 204.586 873.935 203.569 869.479 201.948C877.256 199.375 885.145 197.646 893.331 197.213Z"/>
	<path fill="#FFFEFF" d="M555.683 384.727L556.196 384.753C555.83 386.92 547.889 393.625 546.039 395.689C540.691 401.659 535.606 407.916 531.283 414.675C523.755 426.443 518.817 439.627 517.733 453.602L517.591 453.699L517.161 453.544C516.658 429.676 526.267 405.213 539.131 385.536L555.683 384.727Z"/>
	<path fill="#FFFEFF" d="M649.504 349.586C649.855 350.444 639.683 367.557 638.222 370.494C628.406 390.235 623.103 411.204 621.571 433.173C621.133 439.448 622.209 446.072 621.249 452.256L620.803 452.096C616.337 420.973 618.524 392.415 628.522 362.588C635.69 358.666 642.716 354.138 649.504 349.586Z"/>
	<path fill="#FFFEFF" d="M605.307 375.64C606.362 375.438 606.461 375.211 607.444 375.748C584.697 401.583 569.272 429.426 565.255 464.121L564.76 467.077C564.735 466.905 564.704 466.733 564.684 466.561C562.084 443.585 573.63 396.526 587.788 378.676C593.657 377.903 599.485 376.708 605.307 375.64Z"/>
	<path fill="#FFFEFF" d="M773.728 124.875C775.35 126.867 776.307 134.792 777.38 137.997C779.826 145.307 783.311 152.182 788.306 158.092C797.554 169.036 806.006 170.553 819.582 171.733C810.952 177.469 802.402 182.988 793.338 188.019C788.871 190.697 783.944 192.827 779.164 194.873C783.552 189.427 788.015 184.95 793.403 180.501C782.899 175.225 773.45 168.684 769.576 157.018C765.823 145.716 768.562 135.168 773.728 124.875Z"/>
	<path fill="#FFFEFF" d="M690.76 357.629C692.581 366.383 693.71 375.135 695.946 383.824Q696.833 387.222 697.809 390.595Q698.786 393.969 699.851 397.315Q700.917 400.661 702.07 403.978Q703.224 407.295 704.465 410.581Q705.706 413.866 707.033 417.117Q708.361 420.369 709.774 423.584Q711.187 426.799 712.684 429.975Q714.182 433.152 715.763 436.288Q717.344 439.423 719.008 442.516Q720.671 445.609 722.416 448.657Q724.161 451.705 725.985 454.705Q727.81 457.706 729.714 460.657Q731.617 463.608 733.598 466.508Q735.579 469.408 737.636 472.254Q739.693 475.101 741.825 477.891Q743.956 480.682 746.161 483.416C751.091 489.42 756.335 495.355 761.887 500.789C764.647 503.49 768.305 506.071 770.655 509.079C770.827 509.299 770.993 509.523 771.162 509.745C765.785 507.6 760.902 503.574 756.454 499.94Q753.47 497.538 750.586 495.018Q747.702 492.497 744.923 489.861Q742.144 487.225 739.475 484.478Q736.805 481.731 734.249 478.878Q731.694 476.025 729.256 473.07Q726.819 470.115 724.504 467.064Q722.188 464.012 719.999 460.869Q717.81 457.726 715.75 454.497C700.463 430.859 691.008 403.561 689.986 375.338C689.776 369.521 689.534 363.329 690.76 357.629Z"/>
	<path fill="#FFFEFF" d="M729.825 254.405C729.919 257.837 726.536 264.59 725.488 268.287C724.42 272.05 723.61 275.957 723.025 279.826C719.19 305.219 725.783 341.205 733.823 365.371C744.462 397.354 771.276 445.971 798.39 466.385C803.054 469.896 808.911 472.136 814.12 474.749L813.213 474.845L813.852 474.49L813.458 474.255L812.945 474.809L808.294 473.617C805.383 472.521 802.597 471.321 799.86 469.838C764.867 450.877 731.101 405.082 719.978 367.444C708.417 328.324 710.209 290.576 729.825 254.405Z"/>
</svg>
