<?xml version="1.0" encoding="utf-8" ?>
<svg xmlns="http://www.w3.org/2000/svg" xmlns:xlink="http://www.w3.org/1999/xlink" width="1024" height="1024">
	<path fill="#FEFEFE" d="M0 0L1024 0L1024 1024L0 1024L0 0Z"/>
	<path d="M821.505 120.083C833.121 109.367 847.79 102.354 857.413 89.5373C861.176 84.525 863.424 78.7378 866.777 73.5277C867.525 72.3666 867.957 71.3914 869.328 71.0983C873.934 75.9557 874.5 92.9259 874.353 99.3847Q874.253 102.882 874.007 106.372Q873.761 109.862 873.371 113.338Q872.98 116.815 872.445 120.273Q871.91 123.73 871.232 127.162Q870.553 130.594 869.733 133.995Q868.913 137.397 867.951 140.76Q866.99 144.124 865.89 147.445Q864.789 150.767 863.552 154.039C852.743 143.639 841.785 133.708 828.829 125.992C826.346 124.513 823.792 123.095 821.121 121.982C817.527 120.483 810.564 119.208 807.828 116.573L809.21 115.624L808.87 114.997C807.481 114.409 806.145 113.932 804.699 113.504C804.057 111.744 803.533 110.493 803.987 108.66C809.834 112.444 815.76 116.148 821.505 120.083Z"/>
	<path d="M779.953 51.1801C788.976 65.0513 794.319 79.0839 797.408 95.3228C798.336 98.7825 799.165 102.357 800.354 105.737L803.987 108.66C803.533 110.493 804.057 111.744 804.699 113.504C806.145 113.932 807.481 114.409 808.87 114.997L809.21 115.624L807.828 116.573C810.564 119.208 817.527 120.483 821.121 121.982C823.792 123.095 826.346 124.513 828.829 125.992C841.785 133.708 852.743 143.639 863.552 154.039L863.729 154.849C874.474 163.049 886.215 178.53 888.039 192.272C888.863 198.477 887.612 204.77 888.451 210.977C890.875 228.905 909.901 243.343 923.383 253.853C930.482 259.387 937.906 264.818 945.753 269.236C948.789 270.946 953.089 271.679 955.72 273.784C957.11 274.896 957.502 276.36 957.672 278.042C958.034 281.612 956.686 284.829 954.399 287.523C950.635 291.956 945.19 294.263 940.773 297.885C937.672 300.428 934.92 304.765 931.536 306.732C927.687 310.188 921.313 313.157 915.972 312.733C915.776 312.717 915.583 312.678 915.388 312.651L914.553 313.164C906.854 317.984 906.84 320.283 896.326 318.05C882.746 315.166 867.896 305.957 855 303.993C849.711 307.974 847.534 313.179 846.603 319.583C843.82 338.719 848.097 362.103 858.828 378.332Q851.318 373.573 843.913 368.65C849.387 385.491 855.104 401.639 869.095 413.432C858.387 410.061 848.781 405.718 839.321 399.6C846.99 420.17 854.472 445.687 870.152 461.559C854.414 454.924 842.06 446.845 831.353 433.285C838.896 459.918 841.612 484.566 837.009 512.037C835.011 500.555 828.183 490.4 821.399 481.141C827.347 501.594 827.492 519.784 820.241 539.949C817.886 546.498 814.927 552.833 812.617 559.387C810.413 542.445 806.695 527.521 797.432 512.873C797.739 526.141 797.531 538.592 793.912 551.497C792.238 557.468 790.058 563.377 786.815 568.687C784.035 573.24 780.769 577.491 778.695 582.436C767.185 609.875 757.496 639.089 749.545 667.769C736.471 714.928 730.279 762.96 727.314 811.707C726.524 824.681 725.603 837.695 725.39 850.692C725.153 865.129 723.471 898.451 734.302 909.166C740.121 914.923 748.137 912.917 754.528 916.913C763.402 922.461 766.54 943.071 773.364 952.511Q764.695 951.421 756.045 950.191L760.677 954.606C746.327 954.428 711.043 956.457 700.847 946.087C694.305 939.433 690.555 928.111 688.982 919.115C687.499 910.632 687.946 901.958 687.937 893.384Q687.971 881.061 687.131 868.766C685.949 851.234 684.114 833.757 682.689 816.245Q679.623 776.012 675.998 735.826C670.535 780.017 656.427 870.358 668.708 910.772C669.718 914.095 670.759 917.716 672.927 920.487C676.234 924.715 681.392 926.434 685.783 929.215C696.665 936.109 701.292 954.734 704.942 966.339Q696.706 964.701 688.49 962.97C689.015 965.037 689.571 967.099 689.984 969.191C682.753 967.739 675.593 965.925 668.97 962.587L671.526 967.566C660.596 967.29 641.54 968.658 633.329 960.234C629.019 955.811 627.399 948.684 626.769 942.719C625.573 931.401 626.525 919.659 626.775 908.294Q627.04 893.545 625.975 878.833Q620.596 807.501 610.363 736.702L605.488 700.107C604.604 693.12 604.041 685.973 602.83 679.043Q596.773 684.855 590.887 690.841C592.991 676.34 595.156 662.362 599.299 648.254C594.178 653.306 588.757 658.228 583.208 662.804C585.365 648.946 588.282 635.3 593.292 622.16C591.36 623.857 589.308 625.505 587.538 627.37L582.393 634.435C581.01 629.822 580.674 624.824 580.155 620.051L579.303 611.896C577.6 619.668 575.826 627.855 575.408 635.805C567.257 626.331 558.875 617.07 550.988 607.373C552.788 614.405 553.326 621.731 555.009 628.817C544.888 619.805 534.624 610.909 525.001 601.364L529.731 619.64C510.596 599.899 484.959 586.397 459.203 577.4C453.882 613.608 445.446 649.156 424.232 679.609C416.811 690.261 408.377 700.211 400.695 710.678C395.373 717.93 390.616 725.61 385.883 733.256C378.638 744.96 372.491 757.733 369.199 771.135C361.908 800.82 367.119 842.236 374.124 871.723C376.821 883.074 380.251 897.897 390.844 904.432C397.231 904.606 403.668 904.258 409.242 907.941C420.976 915.694 425.566 932.627 428.005 945.554C421.508 944.326 415.213 942.926 408.958 940.751C409.69 942.625 410.495 944.474 411.27 946.331C397.043 946.116 376.766 946.694 364.009 940.414C358.783 937.841 356.406 933.222 354.183 928.099C347.364 912.388 343.907 894.683 340.281 878.01Q331.859 839.135 325.414 799.885C323.211 786.817 319.517 770.868 319.555 757.831C319.57 752.867 323.096 748.374 324.914 743.877Q325.625 742.096 326.257 740.286Q326.888 738.476 327.44 736.64Q327.992 734.804 328.462 732.946Q328.933 731.087 329.321 729.21Q329.71 727.333 330.015 725.44Q330.321 723.548 330.543 721.643Q330.766 719.739 330.904 717.827Q331.042 715.915 331.097 713.999Q331.151 712.082 331.121 710.165Q331.091 708.248 330.977 706.335Q330.863 704.421 330.665 702.514Q330.467 700.607 330.186 698.711Q329.904 696.815 329.54 694.932Q329.175 693.05 328.728 691.186Q328.281 689.322 327.753 687.479Q327.225 685.636 326.616 683.818C310.562 702.454 293.723 720.444 280.773 741.474C274.523 751.625 269.154 761.902 265.795 773.405C256.204 806.254 256.528 846.145 258.917 880.005C259.536 888.78 259.916 898.153 262.014 906.717C266.078 923.304 274.331 915.713 285.198 922.667C296.9 930.155 300.631 946.664 303.643 959.246C298.254 958.457 292.862 957.71 287.52 956.641L289.355 962.301C281.744 961.565 274.848 959.587 267.687 957.042L269.326 962.709C265.431 961.985 261.428 961.852 257.483 961.547C248.824 960.879 237.696 960.302 231.765 952.981C228.557 949.022 226.94 943.465 225.839 938.566C223.037 926.099 222.193 912.81 221.225 900.099C218.831 868.662 218.844 837.112 216.662 805.668Q215.384 788.649 213.442 771.692C212.722 764.822 211.107 756.789 211.929 749.925C212.45 745.568 224.426 730.332 227.345 725.184C230.144 720.247 232.553 714.874 234.215 709.445C239.75 691.354 243.73 671.063 243.53 652.11C243.396 639.481 241.723 627.034 242.88 614.38C240.516 617.254 237.805 619.862 235.199 622.517C235.059 606.6 236.471 595.019 239.621 579.399C235.249 584.369 231.802 589.453 228.501 595.187C228.096 576.89 230.994 558.536 235.19 540.789C231.482 547.613 228.101 554.401 225.212 561.609C224.185 551.787 224.526 542.147 225.024 532.313C222.42 534.356 219.745 536.328 217.459 538.732C217.29 549.74 218.978 560.357 219.261 571.271C215.112 562.339 210.875 552.71 208.037 543.265C208.507 564.735 209.525 585.609 213.407 606.79C215.867 620.211 219.676 633.308 222.168 646.725C213.857 635.658 208.01 622.317 201.646 610.087C205.083 632.252 205.414 646.057 204.201 668.446C200.387 659.309 197.467 649.866 193.216 640.901C195.195 668.627 190.707 694.418 182.858 720.926C182.271 712.772 180.588 704.607 179.185 696.563C170.384 727.252 149.714 749.286 128.151 771.636C130.295 764.754 131.895 757.629 133.464 750.596C112.101 774.811 93.9052 782.288 62.3201 786.216C89.7063 761.241 104.942 719.259 110.899 683.47C106.479 689.331 101.655 694.384 95.9922 699.042Q100.747 688.399 104.501 677.364Q108.254 666.329 110.976 654.995C105.512 659.762 100.076 664.137 93.9348 668.02C101.461 654.351 110.076 639.626 114.869 624.735C119.852 609.253 121.576 591.938 123.837 575.866C128.207 544.794 131.826 513.635 140.967 483.502C158.18 426.764 203.392 384.136 259.115 365.494C267.148 362.806 275.577 360.838 283.939 359.455C288.684 358.67 294.143 358.599 298.671 357.059C303.844 355.3 308.431 351.162 313.558 348.97C332.198 341.004 352.255 336.95 372.455 335.745C426.606 332.514 485.726 349.932 538.497 337.457C553.777 333.845 568.289 327.694 582.097 320.32C574.168 319.615 566.467 318.551 558.687 316.85C578.28 315.491 593.602 305.074 610.781 296.99C598.328 296.751 585.87 295.143 574.136 290.858C600.968 285.986 615.819 275.773 637.001 260.101C620.2 263.084 604.471 263.225 587.685 259.939C614.496 254.331 638.647 240.317 657.927 221.012C643.595 223.354 631.5 222.794 617.349 219.977C640.656 216.554 657.195 197.968 673.908 183.028C662.441 186.38 652.282 189.836 642.263 196.553C653.804 176.088 680.936 159.633 701.629 149.048C692.074 148.451 682.81 148.952 673.337 150.253C687.325 137.2 705.818 131.995 724.18 128.796Q712.628 125.709 700.837 123.715C713.684 119.344 729.064 116.243 742.638 118.038C746.201 114.529 750.911 105.984 754.013 101.434C766.764 83.2529 774.117 73.0856 779.953 51.1801Z"/>
	<path fill="#7E7D7D" d="M844.827 205.336C847.695 205.534 850.511 205.309 852.735 207.321C853.302 209.033 852.785 210.427 852.358 212.103C851.702 212.479 851.139 212.77 850.37 212.866C849.175 213.014 847.958 212.658 847.082 211.813C845.301 210.096 845.057 207.655 844.827 205.336Z"/>
	<path fill="#FEFEFE" d="M832.155 199.726L841.839 203.232C841.992 205.784 842.011 208.343 843.249 210.651C844.223 212.465 846.112 214.724 848.221 215.205C849.528 215.503 850.625 215.28 851.715 214.47C854.168 212.65 854.35 209.456 854.699 206.687C857.054 209.239 858.853 211.836 860.683 214.772L863.403 219.93C857.516 219.864 850.162 220.49 844.75 218.007C837.719 214.782 834.596 206.525 832.155 199.726Z"/>
	<path fill="#3F3E3E" d="M781.826 83.8848C782.219 89.9605 780.631 96.8532 779.879 102.918C778.347 115.285 776.866 128.022 777.271 140.491C777.373 143.618 777.821 146.939 777.295 150.031L776.71 148.873C769.946 125.609 773.704 105.993 781.826 83.8848Z"/>
	<path fill="#3F3E3E" d="M601.929 564.381C599.047 573.588 583.976 619.277 587.292 626.953C587.356 627.101 587.456 627.231 587.538 627.37L582.393 634.435C581.01 629.822 580.674 624.824 580.155 620.051C582.365 617.107 584.355 605.437 585.78 601.07C589.886 588.493 595.651 576.013 601.929 564.381Z"/>
	<path fill="#3F3E3E" d="M797.408 95.3228C798.336 98.7825 799.165 102.357 800.354 105.737L803.987 108.66C803.533 110.493 804.057 111.744 804.699 113.504C806.145 113.932 807.481 114.409 808.87 114.997L809.21 115.624L807.828 116.573C810.564 119.208 817.527 120.483 821.121 121.982C823.792 123.095 826.346 124.513 828.829 125.992C841.785 133.708 852.743 143.639 863.552 154.039L863.729 154.849C857.513 151.211 852.09 145.508 846.433 141.042C833.554 130.875 820.484 124.245 805.198 118.493C806.436 126.877 809.062 134.829 811.541 142.908C806.607 136.343 803.767 128.88 801.567 121.013C800.319 116.549 795.497 98.7325 797.408 95.3228Z"/>
	<path fill="#3F3E3E" d="M828.922 281.047C858.947 280.685 886.605 306.108 914.062 308.221C919.922 308.672 925.766 307.639 931.536 306.732C927.687 310.188 921.313 313.157 915.972 312.733C915.776 312.717 915.583 312.678 915.388 312.651C911.268 310.547 901.242 310.288 895.552 308.136C882.354 303.146 870.391 295.44 857.524 289.723C848.223 285.59 838.801 283.276 828.922 281.047Z"/>
	<path fill="#3F3E3E" d="M413.256 562.656C429.466 561.334 448.938 566.636 463.032 574.482C447.106 569.828 429.155 564.81 412.662 569.194Q411.52 569.493 410.397 569.86Q409.275 570.227 408.176 570.659Q407.078 571.092 406.006 571.589Q404.935 572.086 403.896 572.646Q402.856 573.206 401.851 573.826Q400.847 574.447 399.881 575.126Q398.915 575.805 397.991 576.54Q397.067 577.275 396.188 578.064C381.467 591.203 368.922 619.528 358.673 636.973Q355.02 643.396 351.038 649.621C349.479 652.021 337.854 669.348 336.514 669.634C340.563 660.585 349.193 648.613 354.371 639.169C365.296 619.247 374.653 594.969 388.455 577.185C395.218 568.471 402.229 564.041 413.256 562.656Z"/>
	<path fill="#3F3E3E" d="M217.459 538.732Q217.388 538.042 217.334 537.35C216.802 530.37 217.438 523.123 218.109 516.161C221.787 477.956 237.26 438.008 262.387 408.676C262.188 409.881 251.175 429.636 249.312 433.651C239.909 453.919 231.513 476.615 227.854 498.73C232.576 494.944 237.704 491.518 242.875 488.382C234.873 501.176 226.081 517.01 225.024 532.313C222.42 534.356 219.745 536.328 217.459 538.732Z"/>
	<path fill="#3F3E3E" d="M742.638 118.038C746.201 114.529 750.911 105.984 754.013 101.434C755.118 106.83 734.447 136.144 735.544 149.232C736.045 155.219 740.281 161.415 744.417 165.607C736.688 172.6 729.757 179.864 723.292 188.049C727.094 186.494 730.734 185.7 734.791 185.096C721.979 193.395 712.6 205.386 709.279 220.498C708.727 223.011 708.282 225.552 707.791 228.079C712.954 222.028 718.267 216.254 724.003 210.738C714.878 228.068 712.751 236.42 711.593 255.801Q716.113 250.085 721.212 244.878Q726.312 239.672 731.933 235.034C725.935 252.822 729.969 266.827 734.136 284.311C735.829 274.754 738.907 266.156 742.877 257.338C743.505 264.301 744.45 269.813 747.312 276.25C746.902 272.916 746.433 269.608 746.458 266.242C748.212 269.845 748.686 274.911 749.718 278.837C751.191 284.444 753.063 289.956 754.598 295.551C748.091 287.906 744.48 281.382 741.369 271.847C736.644 282.322 734.602 292.177 734.571 303.664C724.991 286.691 721.465 266.946 725.851 247.804C717.935 255.258 709.695 262.338 704.01 271.728C704.13 256.634 706.634 239.325 713.182 225.538C708.646 230.596 704.167 235.661 700.174 241.171C705.537 208.829 714.058 191.15 738.178 168.702C733.329 160.999 729.098 152.017 731.259 142.754C733.447 133.378 740.042 126.073 742.638 118.038Z"/>
	<path fill="#3F3E3E" d="M770.527 555.792C770.756 556.02 771.009 556.225 771.213 556.474C776.363 562.776 773.259 580.207 772.04 587.709C773.613 585.297 775.128 582.51 777.171 580.479L777.54 580.884C777.069 580.323 777.336 580.406 776.888 580.358L776.938 581.483L777.309 581.819C777.239 581.968 777.178 582.121 777.1 582.266C775.284 585.654 772.735 588.855 770.498 591.978C758.55 608.657 740.771 628.54 720.578 634.769C723.105 628.208 724.682 621.777 725.652 614.823C718.032 628.817 706.292 639.61 693.534 648.846C690.825 656.068 689.519 664.206 687.824 671.719C684.921 684.587 681.739 697.484 679.345 710.454C678.09 717.256 677.493 724.163 676.271 730.963L676.234 730.97L676.206 730.321L675.794 729.997C675.814 726.67 676.621 722.989 676.889 719.618C678.285 702.045 681.03 684.761 683.925 667.386C689.391 640.385 696.359 613.603 701.372 586.542C702.229 604.703 699.484 624.244 695.38 641.931C709.965 629.255 721.261 616.196 727.71 597.659C731.119 606.768 729.798 615.105 728.09 624.434C737.764 610.203 742.339 595.741 745.222 578.933C748.509 586.688 749.589 594.658 749.487 603.028C761.011 588.637 767.376 573.853 770.527 555.792Z"/>
</svg>
